<svg width="440" height="320" viewBox="0 0 440 320" fill="none" xmlns="http://www.w3.org/2000/svg">
<g opacity="0.1">
<mask id="mask0_3145_745" style="mask-type:alpha" maskUnits="userSpaceOnUse" x="0" y="0" width="440" height="320">
<rect width="440" height="320" fill="#D9D9D9"/>
</mask>
<g mask="url(#mask0_3145_745)">
<path d="M20.04 150.04L0 160.14V-0.429688L20.04 9.82031V150.04Z" fill="#383C2E"/>
<path d="M40.08 160.14L20.04 150.04V9.82031L40.08 -0.429688V160.14Z" fill="#E5E4E2"/>
<path d="M40.08 160.14L20.04 170.39L0 160.14L20.04 150.04L40.08 160.14Z" fill="#7F552C"/>
<path d="M40.08 -0.430275L20.04 9.81973L0 -0.430275L20.04 -10.5303L40.08 -0.430275Z" fill="#7F552C"/>
<path d="M20.04 310.7L0 320.8V160.22L20.04 170.47V310.7Z" fill="#E5E4E2"/>
<path d="M40.08 320.8L20.04 310.7V170.47L40.08 160.22V320.8Z" fill="#383C2E"/>
<path d="M40.08 320.79L20.04 331.04L0 320.79L20.04 310.69L40.08 320.79Z" fill="#7F552C"/>
<path d="M60.1201 150.04L40.0801 160.14V-0.429688L60.1201 9.82031V150.04Z" fill="#383C2E"/>
<path d="M80.1701 160.14L60.1201 150.04V9.82031L80.1701 -0.429688V160.14Z" fill="#E5E4E2"/>
<path d="M80.1701 160.14L60.1201 170.39L40.0801 160.14L60.1201 150.04L80.1701 160.14Z" fill="#7F552C"/>
<path d="M80.1701 -0.430275L60.1201 9.81973L40.0801 -0.430275L60.1201 -10.5303L80.1701 -0.430275Z" fill="#7F552C"/>
<path d="M60.1201 310.7L40.0801 320.8V160.22L60.1201 170.47V310.7Z" fill="#E5E4E2"/>
<path d="M80.1701 320.8L60.1201 310.7V170.47L80.1701 160.22V320.8Z" fill="#383C2E"/>
<path d="M80.1701 320.79L60.1201 331.04L40.0801 320.79L60.1201 310.69L80.1701 320.79Z" fill="#7F552C"/>
<path d="M100.21 150.04L80.1699 160.14V-0.429688L100.21 9.82031V150.04Z" fill="#383C2E"/>
<path d="M120.25 160.14L100.21 150.04V9.82031L120.25 -0.429688V160.14Z" fill="#E5E4E2"/>
<path d="M120.25 160.14L100.21 170.39L80.1699 160.14L100.21 150.04L120.25 160.14Z" fill="#7F552C"/>
<path d="M120.25 -0.430275L100.21 9.81973L80.1699 -0.430275L100.21 -10.5303L120.25 -0.430275Z" fill="#7F552C"/>
<path d="M100.21 310.7L80.1699 320.8V160.22L100.21 170.47V310.7Z" fill="#E5E4E2"/>
<path d="M120.25 320.8L100.21 310.7V170.47L120.25 160.22V320.8Z" fill="#383C2E"/>
<path d="M120.25 320.79L100.21 331.04L80.1699 320.79L100.21 310.69L120.25 320.79Z" fill="#7F552C"/>
<path d="M140.29 150.04L120.25 160.14V-0.429688L140.29 9.82031V150.04Z" fill="#383C2E"/>
<path d="M160.33 160.14L140.29 150.04V9.82031L160.33 -0.429688V160.14Z" fill="#E5E4E2"/>
<path d="M160.33 160.14L140.29 170.39L120.25 160.14L140.29 150.04L160.33 160.14Z" fill="#7F552C"/>
<path d="M160.33 -0.430275L140.29 9.81973L120.25 -0.430275L140.29 -10.5303L160.33 -0.430275Z" fill="#7F552C"/>
<path d="M140.29 310.7L120.25 320.8V160.22L140.29 170.47V310.7Z" fill="#E5E4E2"/>
<path d="M160.33 320.8L140.29 310.7V170.47L160.33 160.22V320.8Z" fill="#383C2E"/>
<path d="M160.33 320.79L140.29 331.04L120.25 320.79L140.29 310.69L160.33 320.79Z" fill="#7F552C"/>
<path d="M180.37 150.04L160.33 160.14V-0.429688L180.37 9.82031V150.04Z" fill="#383C2E"/>
<path d="M200.42 160.14L180.37 150.04V9.82031L200.42 -0.429688V160.14Z" fill="#E5E4E2"/>
<path d="M200.42 160.14L180.37 170.39L160.33 160.14L180.37 150.04L200.42 160.14Z" fill="#7F552C"/>
<path d="M200.42 -0.430275L180.37 9.81973L160.33 -0.430275L180.37 -10.5303L200.42 -0.430275Z" fill="#7F552C"/>
<path d="M180.37 310.7L160.33 320.8V160.22L180.37 170.47V310.7Z" fill="#E5E4E2"/>
<path d="M200.42 320.8L180.37 310.7V170.47L200.42 160.22V320.8Z" fill="#383C2E"/>
<path d="M200.42 320.79L180.37 331.04L160.33 320.79L180.37 310.69L200.42 320.79Z" fill="#7F552C"/>
<path d="M220.46 150.04L200.42 160.14V-0.429688L220.46 9.82031V150.04Z" fill="#383C2E"/>
<path d="M240.5 160.14L220.46 150.04V9.82031L240.5 -0.429688V160.14Z" fill="#E5E4E2"/>
<path d="M240.5 160.14L220.46 170.39L200.42 160.14L220.46 150.04L240.5 160.14Z" fill="#7F552C"/>
<path d="M240.5 -0.430275L220.46 9.81973L200.42 -0.430275L220.46 -10.5303L240.5 -0.430275Z" fill="#7F552C"/>
<path d="M220.46 310.7L200.42 320.8V160.22L220.46 170.47V310.7Z" fill="#E5E4E2"/>
<path d="M240.5 320.8L220.46 310.7V170.47L240.5 160.22V320.8Z" fill="#383C2E"/>
<path d="M240.5 320.79L220.46 331.04L200.42 320.79L220.46 310.69L240.5 320.79Z" fill="#7F552C"/>
<path d="M260.54 150.04L240.5 160.14V-0.429688L260.54 9.82031V150.04Z" fill="#383C2E"/>
<path d="M280.58 160.14L260.54 150.04V9.82031L280.58 -0.429688V160.14Z" fill="#E5E4E2"/>
<path d="M280.58 160.14L260.54 170.39L240.5 160.14L260.54 150.04L280.58 160.14Z" fill="#7F552C"/>
<path d="M280.58 -0.430275L260.54 9.81973L240.5 -0.430275L260.54 -10.5303L280.58 -0.430275Z" fill="#7F552C"/>
<path d="M260.54 310.7L240.5 320.8V160.22L260.54 170.47V310.7Z" fill="#E5E4E2"/>
<path d="M280.58 320.8L260.54 310.7V170.47L280.58 160.22V320.8Z" fill="#383C2E"/>
<path d="M280.58 320.79L260.54 331.04L240.5 320.79L260.54 310.69L280.58 320.79Z" fill="#7F552C"/>
<path d="M300.62 150.04L280.58 160.14V-0.429688L300.62 9.82031V150.04Z" fill="#383C2E"/>
<path d="M320.67 160.14L300.62 150.04V9.82031L320.67 -0.429688V160.14Z" fill="#E5E4E2"/>
<path d="M320.67 160.14L300.62 170.39L280.58 160.14L300.62 150.04L320.67 160.14Z" fill="#7F552C"/>
<path d="M320.67 -0.430275L300.62 9.81973L280.58 -0.430275L300.62 -10.5303L320.67 -0.430275Z" fill="#7F552C"/>
<path d="M300.62 310.7L280.58 320.8V160.22L300.62 170.47V310.7Z" fill="#E5E4E2"/>
<path d="M320.67 320.8L300.62 310.7V170.47L320.67 160.22V320.8Z" fill="#383C2E"/>
<path d="M320.67 320.79L300.62 331.04L280.58 320.79L300.62 310.69L320.67 320.79Z" fill="#7F552C"/>
<path d="M340.71 150.04L320.67 160.14V-0.429688L340.71 9.82031V150.04Z" fill="#383C2E"/>
<path d="M360.75 160.14L340.71 150.04V9.82031L360.75 -0.429688V160.14Z" fill="#E5E4E2"/>
<path d="M360.75 160.14L340.71 170.39L320.67 160.14L340.71 150.04L360.75 160.14Z" fill="#7F552C"/>
<path d="M360.75 -0.430275L340.71 9.81973L320.67 -0.430275L340.71 -10.5303L360.75 -0.430275Z" fill="#7F552C"/>
<path d="M340.71 310.7L320.67 320.8V160.22L340.71 170.47V310.7Z" fill="#E5E4E2"/>
<path d="M360.75 320.8L340.71 310.7V170.47L360.75 160.22V320.8Z" fill="#383C2E"/>
<path d="M360.75 320.79L340.71 331.04L320.67 320.79L340.71 310.69L360.75 320.79Z" fill="#7F552C"/>
<path d="M20.04 150.04L0 160.14V-0.429688L20.04 9.82031V150.04Z" fill="#383C2E"/>
<path d="M40.08 160.14L20.04 150.04V9.82031L40.08 -0.429688V160.14Z" fill="#E5E4E2"/>
<path d="M40.08 160.14L20.04 170.39L0 160.14L20.04 150.04L40.08 160.14Z" fill="#7F552C"/>
<path d="M40.08 -0.430275L20.04 9.81973L0 -0.430275L20.04 -10.5303L40.08 -0.430275Z" fill="#7F552C"/>
<path d="M20.04 310.7L0 320.8V160.22L20.04 170.47V310.7Z" fill="#E5E4E2"/>
<path d="M40.08 320.8L20.04 310.7V170.47L40.08 160.22V320.8Z" fill="#383C2E"/>
<path d="M40.08 320.79L20.04 331.04L0 320.79L20.04 310.69L40.08 320.79Z" fill="#7F552C"/>
<path d="M60.1201 150.04L40.0801 160.14V-0.429688L60.1201 9.82031V150.04Z" fill="#383C2E"/>
<path d="M80.1701 160.14L60.1201 150.04V9.82031L80.1701 -0.429688V160.14Z" fill="#E5E4E2"/>
<path d="M80.1701 160.14L60.1201 170.39L40.0801 160.14L60.1201 150.04L80.1701 160.14Z" fill="#7F552C"/>
<path d="M80.1701 -0.430275L60.1201 9.81973L40.0801 -0.430275L60.1201 -10.5303L80.1701 -0.430275Z" fill="#7F552C"/>
<path d="M60.1201 310.7L40.0801 320.8V160.22L60.1201 170.47V310.7Z" fill="#E5E4E2"/>
<path d="M80.1701 320.8L60.1201 310.7V170.47L80.1701 160.22V320.8Z" fill="#383C2E"/>
<path d="M80.1701 320.79L60.1201 331.04L40.0801 320.79L60.1201 310.69L80.1701 320.79Z" fill="#7F552C"/>
<path d="M100.21 150.04L80.1699 160.14V-0.429688L100.21 9.82031V150.04Z" fill="#383C2E"/>
<path d="M120.25 160.14L100.21 150.04V9.82031L120.25 -0.429688V160.14Z" fill="#E5E4E2"/>
<path d="M120.25 160.14L100.21 170.39L80.1699 160.14L100.21 150.04L120.25 160.14Z" fill="#7F552C"/>
<path d="M120.25 -0.430275L100.21 9.81973L80.1699 -0.430275L100.21 -10.5303L120.25 -0.430275Z" fill="#7F552C"/>
<path d="M100.21 310.7L80.1699 320.8V160.22L100.21 170.47V310.7Z" fill="#E5E4E2"/>
<path d="M120.25 320.8L100.21 310.7V170.47L120.25 160.22V320.8Z" fill="#383C2E"/>
<path d="M120.25 320.79L100.21 331.04L80.1699 320.79L100.21 310.69L120.25 320.79Z" fill="#7F552C"/>
<path d="M140.29 150.04L120.25 160.14V-0.429688L140.29 9.82031V150.04Z" fill="#383C2E"/>
<path d="M160.33 160.14L140.29 150.04V9.82031L160.33 -0.429688V160.14Z" fill="#E5E4E2"/>
<path d="M160.33 160.14L140.29 170.39L120.25 160.14L140.29 150.04L160.33 160.14Z" fill="#7F552C"/>
<path d="M160.33 -0.430275L140.29 9.81973L120.25 -0.430275L140.29 -10.5303L160.33 -0.430275Z" fill="#7F552C"/>
<path d="M140.29 310.7L120.25 320.8V160.22L140.29 170.47V310.7Z" fill="#E5E4E2"/>
<path d="M160.33 320.8L140.29 310.7V170.47L160.33 160.22V320.8Z" fill="#383C2E"/>
<path d="M160.33 320.79L140.29 331.04L120.25 320.79L140.29 310.69L160.33 320.79Z" fill="#7F552C"/>
<path d="M180.37 150.04L160.33 160.14V-0.429688L180.37 9.82031V150.04Z" fill="#383C2E"/>
<path d="M200.42 160.14L180.37 150.04V9.82031L200.42 -0.429688V160.14Z" fill="#E5E4E2"/>
<path d="M200.42 160.14L180.37 170.39L160.33 160.14L180.37 150.04L200.42 160.14Z" fill="#7F552C"/>
<path d="M200.42 -0.430275L180.37 9.81973L160.33 -0.430275L180.37 -10.5303L200.42 -0.430275Z" fill="#7F552C"/>
<path d="M180.37 310.7L160.33 320.8V160.22L180.37 170.47V310.7Z" fill="#E5E4E2"/>
<path d="M200.42 320.8L180.37 310.7V170.47L200.42 160.22V320.8Z" fill="#383C2E"/>
<path d="M200.42 320.79L180.37 331.04L160.33 320.79L180.37 310.69L200.42 320.79Z" fill="#7F552C"/>
<path d="M220.46 150.04L200.42 160.14V-0.429688L220.46 9.82031V150.04Z" fill="#383C2E"/>
<path d="M240.5 160.14L220.46 150.04V9.82031L240.5 -0.429688V160.14Z" fill="#E5E4E2"/>
<path d="M240.5 160.14L220.46 170.39L200.42 160.14L220.46 150.04L240.5 160.14Z" fill="#7F552C"/>
<path d="M240.5 -0.430275L220.46 9.81973L200.42 -0.430275L220.46 -10.5303L240.5 -0.430275Z" fill="#7F552C"/>
<path d="M220.46 310.7L200.42 320.8V160.22L220.46 170.47V310.7Z" fill="#E5E4E2"/>
<path d="M240.5 320.8L220.46 310.7V170.47L240.5 160.22V320.8Z" fill="#383C2E"/>
<path d="M240.5 320.79L220.46 331.04L200.42 320.79L220.46 310.69L240.5 320.79Z" fill="#7F552C"/>
<path d="M260.54 150.04L240.5 160.14V-0.429688L260.54 9.82031V150.04Z" fill="#383C2E"/>
<path d="M280.58 160.14L260.54 150.04V9.82031L280.58 -0.429688V160.14Z" fill="#E5E4E2"/>
<path d="M280.58 160.14L260.54 170.39L240.5 160.14L260.54 150.04L280.58 160.14Z" fill="#7F552C"/>
<path d="M280.58 -0.430275L260.54 9.81973L240.5 -0.430275L260.54 -10.5303L280.58 -0.430275Z" fill="#7F552C"/>
<path d="M260.54 310.7L240.5 320.8V160.22L260.54 170.47V310.7Z" fill="#E5E4E2"/>
<path d="M280.58 320.8L260.54 310.7V170.47L280.58 160.22V320.8Z" fill="#383C2E"/>
<path d="M280.58 320.79L260.54 331.04L240.5 320.79L260.54 310.69L280.58 320.79Z" fill="#7F552C"/>
<path d="M300.62 150.04L280.58 160.14V-0.429688L300.62 9.82031V150.04Z" fill="#383C2E"/>
<path d="M320.67 160.14L300.62 150.04V9.82031L320.67 -0.429688V160.14Z" fill="#E5E4E2"/>
<path d="M320.67 160.14L300.62 170.39L280.58 160.14L300.62 150.04L320.67 160.14Z" fill="#7F552C"/>
<path d="M320.67 -0.430275L300.62 9.81973L280.58 -0.430275L300.62 -10.5303L320.67 -0.430275Z" fill="#7F552C"/>
<path d="M300.62 310.7L280.58 320.8V160.22L300.62 170.47V310.7Z" fill="#E5E4E2"/>
<path d="M320.67 320.8L300.62 310.7V170.47L320.67 160.22V320.8Z" fill="#383C2E"/>
<path d="M320.67 320.79L300.62 331.04L280.58 320.79L300.62 310.69L320.67 320.79Z" fill="#7F552C"/>
<path d="M340.71 150.04L320.67 160.14V-0.429688L340.71 9.82031V150.04Z" fill="#383C2E"/>
<path d="M360.75 160.14L340.71 150.04V9.82031L360.75 -0.429688V160.14Z" fill="#E5E4E2"/>
<path d="M360.75 160.14L340.71 170.39L320.67 160.14L340.71 150.04L360.75 160.14Z" fill="#7F552C"/>
<path d="M360.75 -0.430275L340.71 9.81973L320.67 -0.430275L340.71 -10.5303L360.75 -0.430275Z" fill="#7F552C"/>
<path d="M340.71 310.7L320.67 320.8V160.22L340.71 170.47V310.7Z" fill="#E5E4E2"/>
<path d="M360.75 320.8L340.71 310.7V170.47L360.75 160.22V320.8Z" fill="#383C2E"/>
<path d="M360.75 320.79L340.71 331.04L320.67 320.79L340.71 310.69L360.75 320.79Z" fill="#7F552C"/>
<path d="M380.79 150.04L360.75 160.14V-0.429688L380.79 9.82031V150.04Z" fill="#383C2E"/>
<path d="M400.83 160.14L380.79 150.04V9.82031L400.83 -0.429688V160.14Z" fill="#E5E4E2"/>
<path d="M400.83 160.14L380.79 170.39L360.75 160.14L380.79 150.04L400.83 160.14Z" fill="#7F552C"/>
<path d="M400.83 -0.430275L380.79 9.81973L360.75 -0.430275L380.79 -10.5303L400.83 -0.430275Z" fill="#7F552C"/>
<path d="M380.79 310.7L360.75 320.8V160.22L380.79 170.47V310.7Z" fill="#E5E4E2"/>
<path d="M400.83 320.8L380.79 310.7V170.47L400.83 160.22V320.8Z" fill="#383C2E"/>
<path d="M400.83 320.79L380.79 331.04L360.75 320.79L380.79 310.69L400.83 320.79Z" fill="#7F552C"/>
<path d="M420.87 150.04L400.83 160.14V-0.429688L420.87 9.82031V150.04Z" fill="#383C2E"/>
<path d="M440.92 160.14L420.87 150.04V9.82031L440.92 -0.429688V160.14Z" fill="#E5E4E2"/>
<path d="M440.92 160.14L420.87 170.39L400.83 160.14L420.87 150.04L440.92 160.14Z" fill="#7F552C"/>
<path d="M440.92 -0.430275L420.87 9.81973L400.83 -0.430275L420.87 -10.5303L440.92 -0.430275Z" fill="#7F552C"/>
<path d="M420.87 310.7L400.83 320.8V160.22L420.87 170.47V310.7Z" fill="#E5E4E2"/>
<path d="M440.92 320.8L420.87 310.7V170.47L440.92 160.22V320.8Z" fill="#383C2E"/>
<path d="M440.92 320.79L420.87 331.04L400.83 320.79L420.87 310.69L440.92 320.79Z" fill="#7F552C"/>
</g>
</g>
</svg>
