<svg width="355" height="200" viewBox="0 0 355 200" fill="none" xmlns="http://www.w3.org/2000/svg">
<mask id="mask0_1_938" style="mask-type:alpha" maskUnits="userSpaceOnUse" x="0" y="0" width="355" height="200">
<path d="M0 0H355V200H0V0Z" fill="#D9D9D9"/>
</mask>
<g mask="url(#mask0_1_938)">
<path d="M62.4756 5.10839C60.9448 3.57753 59.4139 2.04667 57.883 0.515808H6.05127C7.45785 1.98453 8.86444 3.45043 10.271 4.91915C27.6726 4.98129 45.0741 5.04625 62.4756 5.10839Z" fill="#2C3126"/>
<path d="M72.2823 14.9121L67.6897 10.3195H15.8579L20.0748 14.7257C37.4764 14.7878 54.8807 14.85 72.2823 14.9121Z" fill="#2C3126"/>
<path d="M82.4785 25.1113C80.9477 23.5804 79.4168 22.0496 77.886 20.5187H26.0542L30.274 24.9249C47.6755 24.987 65.077 25.0492 82.4785 25.1113Z" fill="#2C3126"/>
<path d="M179.993 5.10839C178.462 3.57753 176.932 2.04667 175.401 0.515808H123.572C124.976 1.98453 126.382 3.45043 127.789 4.91915C145.19 4.98129 162.592 5.04625 179.993 5.10839Z" fill="#2C3126"/>
<path d="M189.8 14.9121C188.269 13.3812 186.738 11.8504 185.207 10.3195H133.375C134.782 11.7882 136.189 13.257 137.595 14.7257C154.997 14.7878 172.398 14.85 189.8 14.9121Z" fill="#2C3126"/>
<path d="M199.999 25.1113C198.468 23.5804 196.937 22.0496 195.404 20.5187H143.575C144.981 21.9874 146.385 23.4562 147.792 24.9249C165.193 24.987 182.595 25.0492 199.999 25.1113Z" fill="#2C3126"/>
<path d="M170.777 31.0172C169.325 32.5396 167.876 34.062 166.427 35.5844H140.34C120.705 16.1266 101.069 -3.3283 81.4334 -22.7832C72.7369 -22.9273 64.0432 -23.0741 55.3467 -23.2182C56.7956 -24.8112 58.2446 -26.407 59.6935 -28C68.4974 -27.9266 77.3013 -27.856 86.1051 -27.7825C105.597 -8.14683 125.088 11.4917 144.58 31.1274C153.313 31.0906 162.044 31.0539 170.777 31.0172Z" fill="#6F4627"/>
<path d="M160.971 40.8237C159.522 42.3461 158.073 43.8685 156.624 45.3881H130.534C110.898 25.9331 91.2627 6.47822 71.627 -12.9767C62.9333 -13.1236 54.2368 -13.2676 45.5403 -13.4117C46.9921 -15.0075 48.441 -16.6005 49.89 -18.1935C58.6938 -18.1229 67.4977 -18.0494 76.3015 -17.976C95.7932 1.65969 115.285 21.2954 134.776 40.9339C143.507 40.8972 152.237 40.8604 160.971 40.8237Z" fill="#6F4627"/>
<path d="M151.164 50.2377C149.715 51.7601 148.266 53.2797 146.817 54.8021H120.73C101.095 35.3472 81.459 15.8922 61.8205 -3.56268C53.1268 -3.70955 44.4303 -3.8536 35.7366 -3.99764C37.1855 -5.59347 38.6345 -7.18646 40.0834 -8.78229L66.495 -8.5648C85.9866 11.0737 105.478 30.7094 124.97 50.3451C133.703 50.3112 142.434 50.2745 151.164 50.2377Z" fill="#6F4627"/>
<path d="M52.7934 31.0172C51.3444 32.5396 49.8955 34.062 48.4465 35.5844H22.3598C2.7241 16.1266 -16.9116 -3.3283 -36.5501 -22.7832C-45.2438 -22.9273 -53.9403 -23.0741 -62.634 -23.2182C-61.1851 -24.8112 -59.7361 -26.407 -58.2872 -28C-49.4833 -27.9266 -40.6795 -27.856 -31.8756 -27.7825C-12.384 -8.14683 7.10767 11.4917 26.5993 31.1274C35.3326 31.0906 44.063 31.0539 52.7934 31.0172Z" fill="#6F4627"/>
<path d="M42.9896 40.8237C41.5406 42.3461 40.0917 43.8685 38.6399 45.3881H12.5531C-7.08254 25.9331 -26.7182 6.47822 -46.3539 -12.9767C-55.0504 -13.1236 -63.7441 -13.2676 -72.4407 -13.4117C-70.9917 -15.0075 -69.5428 -16.6005 -68.0938 -18.1935C-59.2871 -18.1229 -50.4833 -18.0494 -41.6822 -17.976C-22.1878 1.65969 -2.69615 21.2954 16.7955 40.9339C25.5259 40.8972 34.2563 40.8604 42.9896 40.8237Z" fill="#6F4627"/>
<path d="M33.183 50.2377C31.7341 51.7601 30.2851 53.2797 28.8362 54.8021H2.74661C-16.8891 35.3472 -36.5248 15.8922 -56.1604 -3.56268C-64.8541 -3.70955 -73.5507 -3.8536 -82.2444 -3.99764C-80.7954 -5.59347 -79.3465 -7.18646 -77.8975 -8.78229L-51.486 -8.5648C-31.9943 11.0737 -12.5027 30.7094 6.98895 50.3451C15.7194 50.3112 24.4526 50.2745 33.183 50.2377Z" fill="#6F4627"/>
<path d="M203.414 63.4365L208.006 58.8411H259.835C258.432 60.3098 257.025 61.7785 255.618 63.2472C238.217 63.3094 220.815 63.3743 203.414 63.4365Z" fill="#2C3126"/>
<path d="M193.607 73.2402C195.138 71.7093 196.669 70.1784 198.2 68.6476H250.032C248.625 70.1163 247.218 71.585 245.812 73.0537C228.41 73.1159 211.009 73.178 193.607 73.2402Z" fill="#2C3126"/>
<path d="M183.408 83.4393L188.001 78.8467H239.832L235.615 83.2529C218.214 83.315 200.812 83.3772 183.408 83.4393Z" fill="#2C3126"/>
<path d="M85.3594 63.4365L89.952 58.8411H141.784C140.377 60.3098 138.973 61.7785 137.567 63.2472C120.165 63.3094 102.761 63.3743 85.3594 63.4365Z" fill="#2C3126"/>
<path d="M75.5557 73.2402C77.0865 71.7093 78.6174 70.1784 80.1482 68.6476H131.977C130.573 70.1163 129.167 71.585 127.76 73.0537C110.359 73.1159 92.9572 73.178 75.5557 73.2402Z" fill="#2C3126"/>
<path d="M65.3567 83.4393C66.8875 81.9085 68.4184 80.3776 69.9493 78.8467H121.781L117.564 83.2529C100.16 83.315 82.7582 83.3772 65.3567 83.4393Z" fill="#2C3126"/>
<path d="M-32.158 63.4365L-27.5654 58.8411H24.2664L20.0466 63.2472C2.6451 63.3094 -14.7564 63.3743 -32.158 63.4365Z" fill="#2C3126"/>
<path d="M-41.9646 73.2402L-37.372 68.6476H14.4597C13.0532 70.1163 11.6494 71.585 10.2428 73.0537C-7.15871 73.1159 -24.5631 73.178 -41.9646 73.2402Z" fill="#2C3126"/>
<path d="M-52.1609 83.4393L-47.5683 78.8467H4.26345C2.85687 80.3155 1.45029 81.7842 0.0437031 83.2529C-17.3578 83.315 -34.7594 83.3772 -52.1609 83.4393Z" fill="#2C3126"/>
<path d="M-22.939 89.3452C-21.49 90.8676 -20.0411 92.39 -18.5921 93.9124H7.49465C27.1332 74.4547 46.7688 54.9997 66.4045 35.5448C75.0982 35.4008 83.7948 35.2539 92.4885 35.1099C91.0395 33.5169 89.5906 31.921 88.1416 30.328C79.3378 30.4015 70.5339 30.4721 61.73 30.5455C42.2384 50.1812 22.7468 69.8197 3.25513 89.4554C-5.47529 89.4187 -14.2085 89.382 -22.939 89.3452Z" fill="#6F4627"/>
<path d="M-13.1353 99.1518C-11.6835 100.674 -10.2345 102.197 -8.78558 103.716H17.3012C36.9369 84.2612 56.5726 64.8063 76.2082 45.3514C84.9048 45.2045 93.5985 45.0605 102.295 44.9164C100.846 43.3206 99.3971 41.7276 97.9482 40.1346C89.1443 40.2052 80.3404 40.2787 71.5366 40.3521C52.0449 59.9878 32.5533 79.6235 13.0617 99.262C4.32842 99.2253 -4.40201 99.1885 -13.1353 99.1518Z" fill="#6F4627"/>
<path d="M-3.32861 108.566C-1.87966 110.085 -0.430712 111.608 1.01824 113.13H27.1078C46.7435 93.6751 66.3792 74.2202 86.0149 54.7625C94.7114 54.6184 103.405 54.4744 112.102 54.3303C110.653 52.7345 109.204 51.1415 107.752 49.5457C98.9481 49.6191 90.1442 49.6926 81.3404 49.7632C61.8488 69.4017 42.3571 89.0374 22.8655 108.676C14.1351 108.639 5.40181 108.602 -3.32861 108.566Z" fill="#6F4627"/>
<path d="M95.0417 89.3452C96.4907 90.8676 97.9396 92.39 99.3886 93.9124H125.478C145.114 74.4547 164.75 54.9997 184.385 35.5448C193.079 35.4008 201.775 35.2539 210.472 35.1099C209.023 33.5169 207.571 31.921 206.122 30.328L179.711 30.5455C160.219 50.1812 140.727 69.8197 121.236 89.4554C112.505 89.4187 103.772 89.382 95.0417 89.3452Z" fill="#6F4627"/>
<path d="M104.848 99.1518C106.297 100.674 107.746 102.197 109.195 103.716H135.282C154.918 84.2612 174.553 64.8063 194.192 45.3514C202.886 45.2045 211.582 45.0605 220.276 44.9164C218.827 43.3206 217.378 41.7276 215.929 40.1346C207.125 40.2052 198.321 40.2787 189.517 40.3521C170.026 59.9878 150.534 79.6235 131.042 99.262C122.309 99.2253 113.579 99.1885 104.848 99.1518Z" fill="#6F4627"/>
<path d="M114.652 108.566C116.101 110.085 117.55 111.608 119.002 113.13H145.089C164.724 93.6751 184.36 74.2202 203.996 54.7625C212.692 54.6184 221.386 54.4744 230.082 54.3303C228.633 52.7345 227.184 51.1415 225.733 49.5457C216.932 49.6191 208.128 49.6926 199.321 49.7632C179.829 69.4017 160.338 89.0374 140.846 108.676C132.116 108.639 123.385 108.602 114.652 108.566Z" fill="#6F4627"/>
<path d="M62.4756 122.115L57.883 117.522H6.05127C7.45785 118.991 8.86444 120.46 10.271 121.928C27.6726 121.99 45.0741 122.053 62.4756 122.115Z" fill="#2C3126"/>
<path d="M72.2823 131.918L67.6897 127.326H15.8579L20.0748 131.732C37.4764 131.794 54.8807 131.856 72.2823 131.918Z" fill="#2C3126"/>
<path d="M82.4785 142.118C80.9477 140.587 79.4168 139.056 77.886 137.525H26.0542L30.274 141.931C47.6755 141.993 65.077 142.055 82.4785 142.118Z" fill="#2C3126"/>
<path d="M179.993 122.115L175.401 117.522H123.572L127.789 121.928C145.19 121.99 162.592 122.053 179.993 122.115Z" fill="#2C3126"/>
<path d="M189.8 131.918C188.269 130.39 186.738 128.86 185.207 127.326H133.375C134.782 128.795 136.189 130.263 137.595 131.732C154.997 131.794 172.398 131.856 189.8 131.918Z" fill="#2C3126"/>
<path d="M199.999 142.118C198.468 140.587 196.937 139.056 195.404 137.525H143.575C144.981 138.994 146.385 140.462 147.792 141.931C165.193 141.993 182.595 142.055 199.999 142.118Z" fill="#2C3126"/>
<path d="M170.777 148.026C169.325 149.546 167.876 151.068 166.427 152.591H140.34C120.705 133.136 101.069 113.681 81.4334 94.2231C72.7369 94.0791 64.0432 93.935 55.3467 93.7882C56.7956 92.1952 58.2446 90.6022 59.6935 89.0063C68.4974 89.0798 77.3013 89.1532 86.1051 89.2238C105.597 108.86 125.088 128.498 144.58 148.134C153.313 148.097 162.044 148.06 170.777 148.026Z" fill="#6F4627"/>
<path d="M160.971 157.83C159.522 159.352 158.073 160.875 156.624 162.394H130.534C110.898 142.939 91.2627 123.485 71.627 104.03C62.9333 103.886 54.2368 103.739 45.5403 103.595C46.9921 102.002 48.441 100.406 49.89 98.8129C58.6938 98.8835 67.4977 98.9569 76.3015 99.0304L134.776 157.94C143.507 157.904 152.237 157.867 160.971 157.83Z" fill="#6F4627"/>
<path d="M151.164 167.244C149.715 168.766 148.266 170.289 146.817 171.808H120.73C101.095 152.353 81.459 132.899 61.8205 113.444C53.1268 113.297 44.4303 113.153 35.7366 113.009C37.1855 111.413 38.6345 109.82 40.0834 108.227L66.495 108.441C85.9866 128.08 105.478 147.716 124.97 167.351C133.703 167.317 142.434 167.281 151.164 167.244Z" fill="#6F4627"/>
<path d="M52.7934 148.026C51.3444 149.546 49.8955 151.068 48.4465 152.591H22.3598C2.7241 133.136 -16.9116 113.681 -36.5501 94.2231C-45.2438 94.0791 -53.9403 93.935 -62.634 93.7882C-61.1851 92.1952 -59.7361 90.6022 -58.2872 89.0063C-49.4833 89.0798 -40.6795 89.1532 -31.8756 89.2238C-12.384 108.86 7.10767 128.498 26.5993 148.134C35.3326 148.097 44.063 148.06 52.7934 148.026Z" fill="#6F4627"/>
<path d="M42.9896 157.83C41.5406 159.352 40.0917 160.875 38.6399 162.394H12.5531C-7.08254 142.939 -26.7182 123.485 -46.3539 104.03C-55.0504 103.886 -63.7441 103.739 -72.4407 103.595C-70.9917 102.002 -69.5428 100.406 -68.0938 98.8129L-41.6822 99.0304C-22.1878 118.666 -2.69615 138.305 16.7955 157.94C25.5259 157.904 34.2563 157.867 42.9896 157.83Z" fill="#6F4627"/>
<path d="M33.183 167.244C31.7341 168.766 30.2851 170.289 28.8362 171.808H2.74661C-16.8891 152.353 -36.5248 132.899 -56.1604 113.444C-64.8541 113.297 -73.5507 113.153 -82.2444 113.009C-80.7954 111.413 -79.3465 109.82 -77.8975 108.227L-51.486 108.441C-31.9943 128.08 -12.5027 147.716 6.98895 167.351C15.7194 167.317 24.4526 167.281 33.183 167.244Z" fill="#6F4627"/>
<path d="M203.414 180.443C204.942 178.912 206.473 177.381 208.006 175.85H259.835C258.432 177.319 257.025 178.788 255.618 180.256C238.217 180.318 220.815 180.381 203.414 180.443Z" fill="#2C3126"/>
<path d="M193.607 190.246L198.2 185.654H250.032C248.625 187.123 247.218 188.591 245.812 190.06C228.41 190.122 211.009 190.184 193.607 190.246Z" fill="#2C3126"/>
<path d="M183.408 200.446L188.001 195.853H239.832C238.426 197.322 237.022 198.79 235.615 200.259C218.214 200.321 200.812 200.383 183.408 200.446Z" fill="#2C3126"/>
<path d="M85.3594 180.443C86.8902 178.912 88.4211 177.381 89.952 175.85H141.784C140.377 177.319 138.973 178.788 137.567 180.256C120.165 180.318 102.761 180.381 85.3594 180.443Z" fill="#2C3126"/>
<path d="M75.5557 190.246L80.1482 185.654H131.977C130.573 187.123 129.167 188.591 127.76 190.06C110.359 190.122 92.9572 190.184 75.5557 190.246Z" fill="#2C3126"/>
<path d="M65.3567 200.446C66.8875 198.915 68.4184 197.384 69.9493 195.853H121.781C120.374 197.322 118.968 198.79 117.564 200.259C100.16 200.321 82.7582 200.383 65.3567 200.446Z" fill="#2C3126"/>
<path d="M-32.158 180.443C-30.6271 178.912 -29.0962 177.381 -27.5654 175.85H24.2664C22.8598 177.319 21.4532 178.788 20.0466 180.256C2.6451 180.318 -14.7564 180.381 -32.158 180.443Z" fill="#2C3126"/>
<path d="M-41.9646 190.246C-40.4337 188.718 -38.9029 187.188 -37.372 185.654H14.4597C13.0532 187.123 11.6494 188.591 10.2428 190.06C-7.15871 190.122 -24.5631 190.184 -41.9646 190.246Z" fill="#2C3126"/>
<path d="M-52.1609 200.446L-47.5683 195.853H4.26345C2.85687 197.322 1.45029 198.79 0.0437031 200.259C-17.3578 200.321 -34.7594 200.383 -52.1609 200.446Z" fill="#2C3126"/>
<path d="M-22.939 206.352C-21.49 207.874 -20.0411 209.396 -18.5921 210.919H7.49465C27.1332 191.461 46.7688 172.006 66.4045 152.551C75.0982 152.407 83.7948 152.263 92.4885 152.116C91.0395 150.523 89.5906 148.927 88.1416 147.334C79.3378 147.408 70.5339 147.478 61.73 147.552C42.2384 167.188 22.7468 186.826 3.25513 206.462C-5.47529 206.425 -14.2085 206.391 -22.939 206.352Z" fill="#6F4627"/>
<path d="M-13.1353 216.158C-11.6835 217.68 -10.2345 219.203 -8.78558 220.722H17.3012L76.2082 162.358C84.9048 162.214 93.5985 162.067 102.295 161.923C100.846 160.327 99.3971 158.734 97.9482 157.141C89.1443 157.212 80.3404 157.285 71.5366 157.358C52.0449 176.994 32.5533 196.63 13.0617 216.268C4.32842 216.232 -4.40201 216.195 -13.1353 216.158Z" fill="#6F4627"/>
<mask id="mask1_1_938" style="mask-type:alpha" maskUnits="userSpaceOnUse" x="-4" y="166" width="117" height="65">
<path d="M-3.54053 166.504H112.15V230.136H-3.54053V166.504Z" fill="black"/>
</mask>
<g mask="url(#mask1_1_938)">
<path d="M-3.32861 225.572C-1.87966 227.094 -0.430712 228.614 1.01824 230.136H27.1078C46.7435 210.681 66.3792 191.227 86.0149 171.772C94.7114 171.625 103.405 171.481 112.102 171.337C110.653 169.741 109.204 168.148 107.752 166.552L81.3404 166.772C61.8488 186.408 42.3571 206.044 22.8655 225.679C14.1351 225.645 5.40181 225.609 -3.32861 225.572Z" fill="#6F4627"/>
</g>
<path d="M95.0417 206.352C96.4907 207.874 97.9396 209.396 99.3886 210.919H125.478C145.114 191.461 164.75 172.006 184.385 152.551C193.079 152.407 201.775 152.263 210.472 152.116C209.023 150.523 207.571 148.927 206.122 147.334L179.711 147.552C160.219 167.188 140.727 186.826 121.236 206.462C112.505 206.425 103.772 206.391 95.0417 206.352Z" fill="#6F4627"/>
<path d="M104.848 216.158C106.297 217.68 107.746 219.203 109.195 220.722H135.282L194.192 162.358C202.886 162.214 211.582 162.067 220.276 161.923C218.827 160.327 217.378 158.734 215.929 157.141C207.125 157.212 198.321 157.285 189.517 157.358C170.026 176.994 150.534 196.63 131.042 216.268C122.309 216.232 113.579 216.195 104.848 216.158Z" fill="#6F4627"/>
<mask id="mask2_1_938" style="mask-type:alpha" maskUnits="userSpaceOnUse" x="114" y="166" width="117" height="65">
<path d="M114.319 166.504H230.732V230.136H114.319V166.504Z" fill="black"/>
</mask>
<g mask="url(#mask2_1_938)">
<path d="M114.652 225.572C116.101 227.094 117.55 228.614 119.002 230.136H145.089C164.724 210.681 184.36 191.227 203.996 171.772C212.692 171.625 221.386 171.481 230.082 171.337C228.633 169.741 227.184 168.148 225.733 166.552L199.321 166.772C179.829 186.408 160.338 206.044 140.846 225.679C132.116 225.645 123.385 225.609 114.652 225.572Z" fill="#6F4627"/>
</g>
<path d="M181.326 5.10839C179.796 3.57753 178.265 2.04667 176.734 0.515808H124.902C126.309 1.98453 127.715 3.45043 129.122 4.91915C146.523 4.98129 163.925 5.04625 181.326 5.10839Z" fill="#2C3126"/>
<path d="M191.133 14.9121L186.54 10.3195H134.708C136.115 11.7882 137.522 13.257 138.925 14.7257C156.33 14.7878 173.731 14.85 191.133 14.9121Z" fill="#2C3126"/>
<path d="M201.332 25.1113L196.737 20.5187H144.908L149.125 24.9249C166.526 24.987 183.928 25.0492 201.332 25.1113Z" fill="#2C3126"/>
<path d="M299.381 5.10839C297.85 3.57753 296.319 2.04667 294.785 0.515808H242.956C244.36 1.98453 245.767 3.45043 247.173 4.91915C264.575 4.98129 281.976 5.04625 299.381 5.10839Z" fill="#2C3126"/>
<path d="M309.184 14.9121L304.592 10.3195H252.76C254.167 11.7882 255.573 13.257 256.98 14.7257C274.381 14.7878 291.783 14.85 309.184 14.9121Z" fill="#2C3126"/>
<path d="M319.383 25.1113L314.791 20.5187H262.959L267.176 24.9249C284.577 24.987 301.982 25.0492 319.383 25.1113Z" fill="#2C3126"/>
<path d="M407.679 31.0172C406.23 32.5396 404.781 34.062 403.332 35.5844H377.243C357.607 16.1266 337.971 -3.3283 318.336 -22.7832C309.639 -22.9273 300.945 -23.0741 292.249 -23.2182C293.698 -24.8112 295.147 -26.407 296.598 -28C305.402 -27.9266 314.206 -27.856 323.01 -27.7825C342.502 -8.14683 361.993 11.4917 381.485 31.1274C390.215 31.0906 398.949 31.0539 407.679 31.0172Z" fill="#6F4627"/>
<path d="M397.873 40.8237C396.424 42.3461 394.975 43.8685 393.526 45.3881H367.439C347.8 25.9331 328.168 6.47822 308.529 -12.9767C299.835 -13.1236 291.139 -13.2676 282.445 -13.4117C283.894 -15.0075 285.343 -16.6005 286.792 -18.1935C295.596 -18.1229 304.4 -18.0494 313.203 -17.976C332.695 1.65969 352.187 21.2954 371.678 40.9339C380.412 40.8972 389.142 40.8604 397.873 40.8237Z" fill="#6F4627"/>
<path d="M388.066 50.2377C386.617 51.7601 385.168 53.2797 383.719 54.8021H357.632C337.997 35.3472 318.361 15.8922 298.725 -3.56268C290.029 -3.70955 281.335 -3.8536 272.638 -3.99764C274.087 -5.59347 275.536 -7.18646 276.985 -8.78229C285.792 -8.70885 294.593 -8.63542 303.397 -8.5648C322.888 11.0737 342.38 30.7094 361.872 50.3451C370.605 50.3112 379.335 50.2745 388.066 50.2377Z" fill="#6F4627"/>
<path d="M289.698 31.0172C288.249 32.5396 286.798 34.062 285.349 35.5844H259.262C239.626 16.1266 219.991 -3.3283 200.355 -22.7832C191.658 -22.9273 182.965 -23.0741 174.268 -23.2182C175.717 -24.8112 177.166 -26.407 178.615 -28C187.422 -27.9266 196.225 -27.856 205.026 -27.7825C224.521 -8.14683 244.013 11.4917 263.504 31.1274C272.235 31.0906 280.968 31.0539 289.698 31.0172Z" fill="#6F4627"/>
<path d="M279.892 40.8237C278.443 42.3461 276.994 43.8685 275.545 45.3881H249.455C229.822 25.9331 210.184 6.47822 190.548 -12.9767C181.855 -13.1236 173.158 -13.2676 164.464 -13.4117C165.913 -15.0075 167.362 -16.6005 168.811 -18.1935C177.615 -18.1229 186.419 -18.0494 195.223 -17.976C214.714 1.65969 234.206 21.2954 253.698 40.9339C262.431 40.8972 271.161 40.8604 279.892 40.8237Z" fill="#6F4627"/>
<path d="M270.085 50.2377C268.636 51.7601 267.187 53.2797 265.738 54.8021H239.652C220.016 35.3472 200.38 15.8922 180.742 -3.56268C172.048 -3.70955 163.354 -3.8536 154.658 -3.99764C156.107 -5.59347 157.556 -7.18646 159.005 -8.78229L185.416 -8.5648C204.908 11.0737 224.399 30.7094 243.891 50.3451C252.624 50.3112 261.355 50.2745 270.085 50.2377Z" fill="#6F4627"/>
<path d="M322.264 63.4365L326.857 58.8411H378.686L374.469 63.2472C357.067 63.3094 339.666 63.3743 322.264 63.4365Z" fill="#2C3126"/>
<path d="M312.458 73.2402C313.989 71.7093 315.519 70.1784 317.05 68.6476H368.882C367.476 70.1163 366.069 71.585 364.662 73.0537C347.261 73.1159 329.859 73.178 312.458 73.2402Z" fill="#2C3126"/>
<path d="M302.259 83.4393L306.854 78.8467L359 78.8467L355 83.2529C337.598 83.315 319.663 83.3772 302.259 83.4393Z" fill="#2C3126"/>
<path d="M204.744 63.4365C206.275 61.9056 207.806 60.3747 209.34 58.8411H261.168L256.952 63.2472L204.744 63.4365Z" fill="#2C3126"/>
<path d="M194.94 73.2402C196.471 71.7093 198.002 70.1784 199.533 68.6476H251.362C249.958 70.1163 248.552 71.585 247.145 73.0537C229.743 73.1159 212.342 73.178 194.94 73.2402Z" fill="#2C3126"/>
<path d="M184.741 83.4393C186.272 81.9085 187.803 80.3776 189.334 78.8467H241.166L236.949 83.2529C219.544 83.315 202.143 83.3772 184.741 83.4393Z" fill="#2C3126"/>
<path d="M213.963 89.3452C215.412 90.8676 216.864 92.39 218.313 93.9124H244.4C264.035 74.4547 283.671 54.9997 303.307 35.5448C312.003 35.4008 320.697 35.2539 329.393 35.1099C327.944 33.5169 326.495 31.921 325.047 30.328L298.635 30.5455C279.143 50.1812 259.649 69.8197 240.157 89.4554C231.427 89.4187 222.694 89.382 213.963 89.3452Z" fill="#6F4627"/>
<path d="M223.77 99.1518C225.218 100.674 226.667 102.197 228.116 103.716H254.206C273.839 84.2612 293.477 64.8063 313.113 45.3514C321.807 45.2045 330.503 45.0605 339.2 44.9164C337.748 43.3206 336.299 41.7276 334.85 40.1346C326.046 40.2052 317.242 40.2787 308.439 40.3521C288.947 59.9878 269.455 79.6235 249.964 99.262C241.233 99.2253 232.5 99.1885 223.77 99.1518Z" fill="#6F4627"/>
<path d="M233.573 108.566C235.025 110.085 236.474 111.608 237.923 113.13H264.01C283.645 93.6751 303.281 74.2202 322.92 54.7625C331.613 54.6184 340.307 54.4744 349.003 54.3303C347.555 52.7345 346.106 51.1415 344.657 49.5457C335.853 49.6191 327.049 49.6926 318.245 49.7632L259.77 108.676C251.037 108.639 242.306 108.602 233.573 108.566Z" fill="#6F4627"/>
<path d="M331.944 89.3452C333.396 90.8676 334.845 92.39 336.294 93.9124H362.38C382.016 74.4547 401.652 54.9997 421.287 35.5448C429.984 35.4008 438.678 35.2539 447.374 35.1099L443.027 30.328C434.221 30.4015 425.417 30.4721 416.616 30.5455C397.124 50.1812 377.632 69.8197 358.141 89.4554C349.408 89.4187 340.677 89.382 331.944 89.3452Z" fill="#6F4627"/>
<path d="M341.75 99.1518C343.199 100.674 344.648 102.197 346.097 103.716H372.187C391.823 84.2612 411.458 64.8063 431.094 45.3514C439.791 45.2045 448.484 45.0605 457.181 44.9164C455.732 43.3206 454.283 41.7276 452.831 40.1346C444.027 40.2052 435.223 40.2787 426.419 40.3521C406.928 59.9878 387.436 79.6235 367.945 99.262C359.214 99.2253 350.481 99.1885 341.75 99.1518Z" fill="#6F4627"/>
<path d="M351.557 108.566C353.006 110.085 354.455 111.608 355.904 113.13H381.991C401.626 93.6751 421.262 74.2202 440.9 54.7625C449.594 54.6184 458.291 54.4744 466.984 54.3303C465.535 52.7345 464.086 51.1415 462.637 49.5457C453.834 49.6191 445.03 49.6926 436.226 49.7632C416.734 69.4017 397.243 89.0374 377.751 108.676C369.018 108.639 360.287 108.602 351.557 108.566Z" fill="#6F4627"/>
<path d="M181.326 122.115L176.734 117.522H124.902C126.309 118.991 127.715 120.46 129.122 121.928C146.523 121.99 163.925 122.053 181.326 122.115Z" fill="#2C3126"/>
<path d="M191.133 131.918L186.54 127.326H134.708C136.115 128.795 137.522 130.263 138.925 131.732C156.33 131.794 173.731 131.856 191.133 131.918Z" fill="#2C3126"/>
<path d="M201.332 142.118C199.801 140.587 198.27 139.056 196.737 137.525H144.908L149.125 141.931C166.526 141.993 183.928 142.055 201.332 142.118Z" fill="#2C3126"/>
<path d="M299.381 122.115L294.785 117.522H242.956L247.173 121.928C264.575 121.99 281.976 122.053 299.381 122.115Z" fill="#2C3126"/>
<path d="M309.184 131.918L304.592 127.326H252.76C254.167 128.795 255.573 130.263 256.98 131.732C274.381 131.794 291.783 131.856 309.184 131.918Z" fill="#2C3126"/>
<path d="M319.383 142.118C317.852 140.587 316.322 139.056 314.791 137.525H262.959L267.176 141.931C284.577 141.993 301.982 142.055 319.383 142.118Z" fill="#2C3126"/>
<path d="M407.679 148.026C406.23 149.546 404.781 151.068 403.332 152.591H377.243C357.607 133.136 337.971 113.681 318.336 94.2231C309.639 94.0791 300.945 93.935 292.249 93.7882C293.698 92.1952 295.147 90.6022 296.598 89.0063C305.402 89.0798 314.206 89.1532 323.01 89.2238C342.502 108.86 361.993 128.498 381.485 148.134C390.215 148.097 398.949 148.06 407.679 148.026Z" fill="#6F4627"/>
<path d="M397.873 157.83C396.424 159.352 394.975 160.875 393.526 162.394H367.439C347.8 142.939 328.168 123.485 308.529 104.03C299.835 103.886 291.139 103.739 282.445 103.595C283.894 102.002 285.343 100.406 286.792 98.8129L313.203 99.0304C332.695 118.666 352.187 138.305 371.678 157.94C380.412 157.904 389.142 157.867 397.873 157.83Z" fill="#6F4627"/>
<path d="M388.066 167.244C386.617 168.766 385.168 170.289 383.719 171.808H357.632C337.997 152.353 318.361 132.899 298.725 113.444C290.029 113.297 281.335 113.153 272.638 113.009C274.087 111.413 275.536 109.82 276.985 108.227C285.792 108.297 294.593 108.371 303.397 108.441L361.872 167.351C370.605 167.317 379.335 167.281 388.066 167.244Z" fill="#6F4627"/>
<path d="M289.698 148.026C288.249 149.546 286.798 151.068 285.349 152.591H259.262C239.626 133.136 219.991 113.681 200.355 94.2231C191.658 94.0791 182.965 93.935 174.268 93.7882C175.717 92.1952 177.166 90.6022 178.615 89.0063C187.422 89.0798 196.225 89.1532 205.026 89.2238C224.521 108.86 244.013 128.498 263.504 148.134C272.235 148.097 280.968 148.06 289.698 148.026Z" fill="#6F4627"/>
<path d="M279.892 157.83C278.443 159.352 276.994 160.875 275.545 162.394H249.455C229.822 142.939 210.184 123.485 190.548 104.03C181.855 103.886 173.158 103.739 164.464 103.595C165.913 102.002 167.362 100.406 168.811 98.8129C177.615 98.8835 186.419 98.9569 195.223 99.0304L253.698 157.94C262.431 157.904 271.161 157.867 279.892 157.83Z" fill="#6F4627"/>
<path d="M270.085 167.244C268.636 168.766 267.187 170.289 265.738 171.808H239.652C220.016 152.353 200.38 132.899 180.742 113.444C172.048 113.297 163.354 113.153 154.658 113.009C156.107 111.413 157.556 109.82 159.005 108.227L185.416 108.441L243.891 167.351C252.624 167.317 261.355 167.281 270.085 167.244Z" fill="#6F4627"/>
<path d="M322.264 180.443C323.795 178.912 325.326 177.381 326.857 175.85H378.686C377.282 177.319 375.876 178.788 374.469 180.256C357.067 180.318 339.666 180.381 322.264 180.443Z" fill="#2C3126"/>
<path d="M312.458 190.246L317.05 185.654H368.882C367.476 187.123 366.069 188.591 364.662 190.06C347.261 190.122 329.859 190.184 312.458 190.246Z" fill="#2C3126"/>
<path d="M302.259 200.446L306.854 195.853H358.683C357.279 197.322 355.873 198.79 354.466 200.259C337.065 200.321 319.663 200.383 302.259 200.446Z" fill="#2C3126"/>
<path d="M204.744 180.443C206.275 178.912 207.806 177.381 209.34 175.85H261.168C259.765 177.319 258.358 178.788 256.952 180.256L204.744 180.443Z" fill="#2C3126"/>
<path d="M194.94 190.246L199.533 185.654H251.362C249.958 187.123 248.552 188.591 247.145 190.06C229.743 190.122 212.342 190.184 194.94 190.246Z" fill="#2C3126"/>
<path d="M184.741 200.446C186.272 198.915 187.803 197.384 189.334 195.853H241.166C239.759 197.322 238.352 198.79 236.949 200.259C219.544 200.321 202.143 200.383 184.741 200.446Z" fill="#2C3126"/>
<path d="M213.963 206.352C215.412 207.874 216.864 209.396 218.313 210.919H244.4C264.035 191.461 283.671 172.006 303.307 152.551C312.003 152.407 320.697 152.263 329.393 152.116C327.944 150.523 326.495 148.927 325.047 147.334L298.635 147.552C279.143 167.188 259.649 186.826 240.157 206.462C231.427 206.425 222.694 206.391 213.963 206.352Z" fill="#6F4627"/>
<path d="M223.77 216.158C225.218 217.68 226.667 219.203 228.116 220.722H254.206C273.839 201.268 293.477 181.813 313.113 162.358C321.807 162.214 330.503 162.067 339.2 161.923C337.748 160.327 336.299 158.734 334.85 157.141C326.046 157.212 317.242 157.285 308.439 157.358C288.947 176.994 269.455 196.63 249.964 216.268C241.233 216.232 232.5 216.195 223.77 216.158Z" fill="#6F4627"/>
<mask id="mask3_1_938" style="mask-type:alpha" maskUnits="userSpaceOnUse" x="232" y="166" width="118" height="65">
<path d="M232.901 166.504H349.314V230.136H232.901V166.504Z" fill="black"/>
</mask>
<g mask="url(#mask3_1_938)">
<path d="M233.573 225.572C235.025 227.094 236.474 228.614 237.923 230.136H264.01C283.645 210.681 303.281 191.227 322.92 171.772C331.613 171.625 340.307 171.481 349.003 171.337C347.555 169.741 346.106 168.148 344.657 166.552L318.245 166.772C298.753 186.408 279.262 206.044 259.77 225.679C251.037 225.645 242.306 225.609 233.573 225.572Z" fill="#6F4627"/>
</g>
<path d="M331.944 206.352C333.396 207.874 334.845 209.396 336.294 210.919H362.38C382.016 191.461 401.652 172.006 421.287 152.551C429.984 152.407 438.678 152.263 447.374 152.116L443.027 147.334C434.221 147.408 425.417 147.478 416.616 147.552C397.124 167.188 377.632 186.826 358.141 206.462C349.408 206.425 340.677 206.391 331.944 206.352Z" fill="#6F4627"/>
<path d="M341.75 216.158C343.199 217.68 344.648 219.203 346.097 220.722H372.187C391.823 201.268 411.458 181.813 431.094 162.358C439.791 162.214 448.484 162.067 457.181 161.923C455.732 160.327 454.283 158.734 452.831 157.141C444.027 157.212 435.223 157.285 426.419 157.358C406.928 176.994 387.436 196.63 367.945 216.268C359.214 216.232 350.481 216.195 341.75 216.158Z" fill="#6F4627"/>
<mask id="mask4_1_938" style="mask-type:alpha" maskUnits="userSpaceOnUse" x="351" y="166" width="117" height="65">
<path d="M351.483 166.504H467.174V230.136H351.483V166.504Z" fill="black"/>
</mask>
<g mask="url(#mask4_1_938)">
<path d="M351.557 225.572C353.006 227.094 354.455 228.614 355.903 230.136H381.99C401.626 210.681 421.262 191.227 440.9 171.772C449.594 171.625 458.29 171.481 466.984 171.337C465.535 169.741 464.086 168.148 462.637 166.552L436.226 166.772C416.734 186.408 397.242 206.044 377.751 225.679C369.017 225.645 360.287 225.609 351.557 225.572Z" fill="#6F4627"/>
</g>
</g>
</svg>
