<svg width="237" height="208" viewBox="0 0 237 208" fill="none" xmlns="http://www.w3.org/2000/svg">
<g opacity="0.1">
<mask id="mask0_3146_6461" style="mask-type:alpha" maskUnits="userSpaceOnUse" x="0" y="0" width="237" height="208">
<path d="M0 0H237V208H0V0Z" fill="#D9D9D9"/>
</mask>
<g mask="url(#mask0_3146_6461)">
<path d="M29.4761 8.10821C27.9453 6.57735 26.4144 5.04649 24.8835 3.51562H-26.9482C-25.5417 4.98435 -24.1351 6.45025 -22.7285 7.91897C-5.32691 7.98111 12.0746 8.04607 29.4761 8.10821Z" fill="#2C3126"/>
<path d="M39.2828 17.9119L34.6902 13.3193H-17.1416L-12.9247 17.7255C4.4769 17.7876 21.8812 17.8498 39.2828 17.9119Z" fill="#2C3126"/>
<path d="M49.479 28.1112C47.9482 26.5803 46.4173 25.0495 44.8865 23.5186H-6.94531L-2.72551 27.9248C14.676 27.9869 32.0775 28.0491 49.479 28.1112Z" fill="#2C3126"/>
<path d="M146.993 8.10821C145.462 6.57735 143.932 5.04649 142.401 3.51562H90.5723C91.9763 4.98435 93.3823 6.45025 94.7893 7.91897C112.19 7.98111 129.592 8.04607 146.993 8.10821Z" fill="#2C3126"/>
<path d="M156.8 17.9119C155.269 16.381 153.738 14.8502 152.207 13.3193H100.375C101.782 14.788 103.189 16.2568 104.595 17.7255C121.997 17.7876 139.398 17.8498 156.8 17.9119Z" fill="#2C3126"/>
<path d="M166.999 28.1112C165.468 26.5803 163.937 25.0495 162.404 23.5186H110.575C111.981 24.9873 113.385 26.4561 114.792 27.9248C132.193 27.9869 149.595 28.0491 166.999 28.1112Z" fill="#2C3126"/>
<path d="M137.777 34.0172C136.325 35.5396 134.876 37.062 133.427 38.5844H107.34C87.7055 19.1266 68.0695 -0.328299 48.4339 -19.7832C39.7374 -19.9273 31.0437 -20.0741 22.3472 -20.2182C23.7961 -21.8112 25.2451 -23.407 26.694 -25C35.4979 -24.9266 44.3018 -24.856 53.1056 -24.7825C72.5975 -5.14683 92.0885 14.4917 111.58 34.1274C120.313 34.0906 129.044 34.0539 137.777 34.0172Z" fill="#6F4627"/>
<path d="M127.971 43.8238C126.522 45.3462 125.073 46.8686 123.624 48.3882H97.5342C77.8982 28.9332 58.2629 9.47836 38.6272 -9.97656C29.9335 -10.1235 21.237 -10.2675 12.5405 -10.4116C13.9923 -12.0074 15.4412 -13.6004 16.8902 -15.1934C25.694 -15.1228 34.4979 -15.0493 43.3017 -14.9759C62.7934 4.65983 82.2852 24.2955 101.776 43.934C110.507 43.8973 119.237 43.8605 127.971 43.8238Z" fill="#6F4627"/>
<path d="M118.164 53.2378C116.715 54.7602 115.266 56.2798 113.817 57.8022H87.7302C68.0952 38.3473 48.4592 18.8923 28.8207 -0.562616C20.127 -0.709486 11.4305 -0.853536 2.73682 -0.997576C4.18572 -2.59341 5.63472 -4.1864 7.08362 -5.78223L33.4952 -5.56474C52.9868 14.0738 72.4782 33.7095 91.9702 53.3452C100.703 53.3113 109.434 53.2746 118.164 53.2378Z" fill="#6F4627"/>
<path d="M19.7936 34.0172C18.3446 35.5396 16.8957 37.062 15.4467 38.5844H-10.64C-30.2757 19.1266 -49.9114 -0.328299 -69.5499 -19.7832C-78.2436 -19.9273 -86.9401 -20.0741 -95.6338 -20.2182C-94.1849 -21.8112 -92.7359 -23.407 -91.287 -25C-82.4831 -24.9266 -73.6793 -24.856 -64.8754 -24.7825C-45.3838 -5.14683 -25.8921 14.4917 -6.40049 34.1274C2.33281 34.0906 11.0632 34.0539 19.7936 34.0172Z" fill="#6F4627"/>
<path d="M9.98987 43.8238C8.54087 45.3462 7.09197 46.8686 5.64017 48.3882H-20.4466C-40.0823 28.9332 -59.7179 9.47836 -79.3536 -9.97656C-88.0501 -10.1235 -96.7438 -10.2675 -105.44 -10.4116C-103.991 -12.0074 -102.543 -13.6004 -101.094 -15.1934C-92.2868 -15.1228 -83.483 -15.0493 -74.6819 -14.9759C-55.1875 4.65983 -35.6959 24.2955 -16.2042 43.934C-7.47383 43.8973 1.25657 43.8605 9.98987 43.8238Z" fill="#6F4627"/>
<path d="M0.183258 53.2378C-1.26564 54.7602 -2.71464 56.2798 -4.16354 57.8022H-30.2531C-49.8888 38.3473 -69.5245 18.8923 -89.1601 -0.562616C-97.8538 -0.709486 -106.55 -0.853536 -115.244 -0.997576C-113.795 -2.59341 -112.346 -4.1864 -110.897 -5.78223L-84.4857 -5.56474C-64.994 14.0738 -45.5024 33.7095 -26.0108 53.3452C-17.2803 53.3113 -8.54714 53.2746 0.183258 53.2378Z" fill="#6F4627"/>
<path d="M170.414 66.4362L175.006 61.8408H226.835C225.432 63.3095 224.025 64.7782 222.618 66.2469C205.217 66.3091 187.815 66.374 170.414 66.4362Z" fill="#2C3126"/>
<path d="M160.607 76.2401C162.138 74.7092 163.669 73.1783 165.2 71.6475H217.032C215.625 73.1162 214.218 74.5849 212.812 76.0536C195.41 76.1158 178.009 76.1779 160.607 76.2401Z" fill="#2C3126"/>
<path d="M150.408 86.4393L155.001 81.8467H206.832L202.615 86.2529C185.214 86.315 167.812 86.3772 150.408 86.4393Z" fill="#2C3126"/>
<path d="M52.3599 66.4362L56.9525 61.8408H108.784C107.377 63.3095 105.973 64.7782 104.567 66.2469C87.1655 66.3091 69.7615 66.374 52.3599 66.4362Z" fill="#2C3126"/>
<path d="M42.5562 76.2401C44.087 74.7092 45.6179 73.1783 47.1487 71.6475H98.9775C97.5735 73.1162 96.1675 74.5849 94.7605 76.0536C77.3595 76.1158 59.9577 76.1779 42.5562 76.2401Z" fill="#2C3126"/>
<path d="M32.3569 86.4393C33.8877 84.9085 35.4186 83.3776 36.9495 81.8467H88.7812L84.5642 86.2529C67.1602 86.315 49.7584 86.3772 32.3569 86.4393Z" fill="#2C3126"/>
<path d="M-55.939 92.3453C-54.49 93.8677 -53.0411 95.3901 -51.5921 96.9125H-25.5053C-5.86677 77.4548 13.7688 57.9998 33.4045 38.5449C42.0982 38.4009 50.7948 38.254 59.4885 38.11C58.0395 36.517 56.5906 34.9211 55.1416 33.3281C46.3378 33.4016 37.5339 33.4722 28.73 33.5456C9.23843 53.1813 -10.2532 72.8198 -29.7448 92.4555C-38.4753 92.4188 -47.2085 92.3821 -55.939 92.3453Z" fill="#6F4627"/>
<path d="M-46.1353 102.152C-44.6835 103.674 -43.2345 105.197 -41.7855 106.716H-15.6988C3.93695 87.2614 23.5726 67.8065 43.2082 48.3516C51.9048 48.2047 60.5985 48.0607 69.295 47.9166C67.846 46.3208 66.3971 44.7278 64.9482 43.1348C56.1443 43.2054 47.3404 43.2789 38.5366 43.3523C19.0449 62.988 -0.446655 82.6237 -19.9383 102.262C-28.6715 102.225 -37.402 102.189 -46.1353 102.152Z" fill="#6F4627"/>
<path d="M-36.3281 111.566C-34.8792 113.085 -33.4302 114.608 -31.9813 116.13H-5.89172C13.744 96.6753 33.3797 77.2204 53.0154 57.7627C61.7119 57.6186 70.4055 57.4746 79.1025 57.3305C77.6535 55.7347 76.2045 54.1417 74.7525 52.5459C65.9486 52.6193 57.1447 52.6928 48.3409 52.7634C28.8493 72.4019 9.35758 92.0376 -10.134 111.676C-18.8644 111.639 -27.5977 111.602 -36.3281 111.566Z" fill="#6F4627"/>
<path d="M62.042 92.3453C63.491 93.8677 64.9399 95.3901 66.3889 96.9125H92.4783C112.114 77.4548 131.75 57.9998 151.385 38.5449C160.079 38.4009 168.775 38.254 177.472 38.11C176.023 36.517 174.571 34.9211 173.122 33.3281L146.711 33.5456C127.219 53.1813 107.727 72.8198 88.2363 92.4555C79.5053 92.4188 70.7723 92.3821 62.042 92.3453Z" fill="#6F4627"/>
<path d="M71.8481 102.152C73.2971 103.674 74.7461 105.197 76.1951 106.716H102.282C121.918 87.2614 141.553 67.8065 161.192 48.3516C169.886 48.2047 178.582 48.0607 187.276 47.9166C185.827 46.3208 184.378 44.7278 182.929 43.1348C174.125 43.2054 165.321 43.2789 156.517 43.3523C137.026 62.988 117.534 82.6237 98.0422 102.262C89.3092 102.225 80.5791 102.189 71.8481 102.152Z" fill="#6F4627"/>
<path d="M81.6523 111.566C83.1013 113.085 84.5503 114.608 86.0023 116.13H112.089C131.724 96.6753 151.36 77.2204 170.996 57.7627C179.692 57.6186 188.386 57.4746 197.082 57.3305C195.633 55.7347 194.184 54.1417 192.733 52.5459C183.932 52.6193 175.128 52.6928 166.321 52.7634C146.829 72.4019 127.338 92.0376 107.846 111.676C99.1163 111.639 90.3853 111.602 81.6523 111.566Z" fill="#6F4627"/>
<path d="M29.4761 125.115L24.8835 120.522H-26.9482C-25.5417 121.991 -24.1351 123.46 -22.7285 124.928C-5.32691 124.99 12.0746 125.053 29.4761 125.115Z" fill="#2C3126"/>
<path d="M39.2828 134.918L34.6902 130.326H-17.1416L-12.9247 134.732C4.4769 134.794 21.8812 134.856 39.2828 134.918Z" fill="#2C3126"/>
<path d="M49.479 145.118C47.9482 143.587 46.4173 142.056 44.8865 140.525H-6.94531L-2.72551 144.931C14.676 144.993 32.0775 145.055 49.479 145.118Z" fill="#2C3126"/>
<path d="M146.993 125.115L142.401 120.522H90.5723L94.7893 124.928C112.19 124.99 129.592 125.053 146.993 125.115Z" fill="#2C3126"/>
<path d="M156.8 134.918C155.269 133.39 153.738 131.86 152.207 130.326H100.375C101.782 131.795 103.189 133.263 104.595 134.732C121.997 134.794 139.398 134.856 156.8 134.918Z" fill="#2C3126"/>
<path d="M166.999 145.118C165.468 143.587 163.937 142.056 162.404 140.525H110.575C111.981 141.994 113.385 143.462 114.792 144.931C132.193 144.993 149.595 145.055 166.999 145.118Z" fill="#2C3126"/>
<path d="M137.777 151.026C136.325 152.546 134.876 154.068 133.427 155.591H107.34C87.7055 136.136 68.0695 116.681 48.4339 97.2227C39.7374 97.0787 31.0437 96.9346 22.3472 96.7878C23.7961 95.1948 25.2451 93.6018 26.694 92.0059C35.4979 92.0794 44.3018 92.1528 53.1056 92.2234C72.5975 111.86 92.0885 131.498 111.58 151.134C120.313 151.097 129.044 151.06 137.777 151.026Z" fill="#6F4627"/>
<path d="M127.971 160.83C126.522 162.352 125.073 163.875 123.624 165.394H97.5342C77.8982 145.939 58.2629 126.485 38.6272 107.03C29.9335 106.886 21.237 106.739 12.5405 106.595C13.9923 105.002 15.4412 103.406 16.8902 101.812C25.694 101.883 34.4979 101.957 43.3017 102.03L101.776 160.94C110.507 160.904 119.237 160.867 127.971 160.83Z" fill="#6F4627"/>
<path d="M118.164 170.244C116.715 171.766 115.266 173.289 113.817 174.808H87.7302C68.0952 155.353 48.4592 135.899 28.8207 116.444C20.127 116.297 11.4305 116.153 2.73682 116.009C4.18572 114.413 5.63472 112.82 7.08362 111.227L33.4952 111.441C52.9868 131.08 72.4782 150.716 91.9702 170.351C100.703 170.317 109.434 170.281 118.164 170.244Z" fill="#6F4627"/>
<path d="M19.7936 151.026C18.3446 152.546 16.8957 154.068 15.4467 155.591H-10.64C-30.2757 136.136 -49.9114 116.681 -69.5499 97.2227C-78.2436 97.0787 -86.9401 96.9346 -95.6338 96.7878C-94.1849 95.1948 -92.7359 93.6018 -91.287 92.0059C-82.4831 92.0794 -73.6793 92.1528 -64.8754 92.2234C-45.3838 111.86 -25.8921 131.498 -6.40049 151.134C2.33281 151.097 11.0632 151.06 19.7936 151.026Z" fill="#6F4627"/>
<path d="M9.98987 160.83C8.54087 162.352 7.09197 163.875 5.64017 165.394H-20.4466C-40.0823 145.939 -59.7179 126.485 -79.3536 107.03C-88.0501 106.886 -96.7438 106.739 -105.44 106.595C-103.991 105.002 -102.543 103.406 -101.094 101.812L-74.6819 102.03C-55.1875 121.666 -35.6959 141.305 -16.2042 160.94C-7.47383 160.904 1.25657 160.867 9.98987 160.83Z" fill="#6F4627"/>
<path d="M0.183258 170.244C-1.26564 171.766 -2.71464 173.289 -4.16354 174.808H-30.2531C-49.8888 155.353 -69.5245 135.899 -89.1601 116.444C-97.8538 116.297 -106.55 116.153 -115.244 116.009C-113.795 114.413 -112.346 112.82 -110.897 111.227L-84.4857 111.441C-64.994 131.08 -45.5024 150.716 -26.0108 170.351C-17.2803 170.317 -8.54714 170.281 0.183258 170.244Z" fill="#6F4627"/>
<path d="M170.414 183.443C171.942 181.912 173.473 180.381 175.006 178.85H226.835C225.432 180.319 224.025 181.788 222.618 183.256C205.217 183.318 187.815 183.381 170.414 183.443Z" fill="#2C3126"/>
<path d="M160.607 193.246L165.2 188.654H217.032C215.625 190.123 214.218 191.591 212.812 193.06C195.41 193.122 178.009 193.184 160.607 193.246Z" fill="#2C3126"/>
<path d="M150.408 203.446L155.001 198.853H206.832C205.426 200.322 204.022 201.79 202.615 203.259C185.214 203.321 167.812 203.383 150.408 203.446Z" fill="#2C3126"/>
<path d="M52.3599 183.443C53.8907 181.912 55.4216 180.381 56.9525 178.85H108.784C107.377 180.319 105.973 181.788 104.567 183.256C87.1655 183.318 69.7615 183.381 52.3599 183.443Z" fill="#2C3126"/>
<path d="M42.5562 193.246L47.1487 188.654H98.9775C97.5735 190.123 96.1675 191.591 94.7605 193.06C77.3595 193.122 59.9577 193.184 42.5562 193.246Z" fill="#2C3126"/>
<path d="M32.3569 203.446C33.8877 201.915 35.4186 200.384 36.9495 198.853H88.7812C87.3742 200.322 85.9682 201.79 84.5642 203.259C67.1602 203.321 49.7584 203.383 32.3569 203.446Z" fill="#2C3126"/>
<path d="M-55.939 209.352C-54.49 210.874 -53.0411 212.396 -51.5921 213.919H-25.5053C-5.86677 194.461 13.7688 175.006 33.4045 155.551C42.0982 155.407 50.7948 155.263 59.4885 155.116C58.0395 153.523 56.5906 151.927 55.1416 150.334C46.3378 150.408 37.5339 150.478 28.73 150.552C9.23843 170.188 -10.2532 189.826 -29.7448 209.462C-38.4753 209.425 -47.2085 209.391 -55.939 209.352Z" fill="#6F4627"/>
<path d="M-46.1353 219.158C-44.6835 220.68 -43.2345 222.203 -41.7855 223.722H-15.6988L43.2082 165.358C51.9048 165.214 60.5985 165.067 69.295 164.923C67.846 163.327 66.3971 161.734 64.9482 160.141C56.1443 160.212 47.3404 160.285 38.5366 160.358C19.0449 179.994 -0.446655 199.63 -19.9383 219.268C-28.6715 219.232 -37.402 219.195 -46.1353 219.158Z" fill="#6F4627"/>
<mask id="mask1_3146_6461" style="mask-type:alpha" maskUnits="userSpaceOnUse" x="-37" y="169" width="117" height="65">
<path d="M-36.54 169.504H79.1505V233.136H-36.54V169.504Z" fill="black"/>
</mask>
<g mask="url(#mask1_3146_6461)">
<path d="M-36.3281 228.572C-34.8792 230.094 -33.4302 231.614 -31.9813 233.136H-5.89172C13.744 213.681 33.3797 194.227 53.0154 174.772C61.7119 174.625 70.4055 174.481 79.1025 174.337C77.6535 172.741 76.2045 171.148 74.7525 169.552L48.3409 169.772C28.8493 189.408 9.35758 209.044 -10.134 228.679C-18.8644 228.645 -27.5977 228.609 -36.3281 228.572Z" fill="#6F4627"/>
</g>
<path d="M62.042 209.352C63.491 210.874 64.9399 212.396 66.3889 213.919H92.4783C112.114 194.461 131.75 175.006 151.385 155.551C160.079 155.407 168.775 155.263 177.472 155.116C176.023 153.523 174.571 151.927 173.122 150.334L146.711 150.552C127.219 170.188 107.727 189.826 88.2363 209.462C79.5053 209.425 70.7723 209.391 62.042 209.352Z" fill="#6F4627"/>
<path d="M71.8481 219.158C73.2971 220.68 74.7461 222.203 76.1951 223.722H102.282L161.192 165.358C169.886 165.214 178.582 165.067 187.276 164.923C185.827 163.327 184.378 161.734 182.929 160.141C174.125 160.212 165.321 160.285 156.517 160.358C137.026 179.994 117.534 199.63 98.0422 219.268C89.3092 219.232 80.5791 219.195 71.8481 219.158Z" fill="#6F4627"/>
<mask id="mask2_3146_6461" style="mask-type:alpha" maskUnits="userSpaceOnUse" x="81" y="169" width="117" height="65">
<path d="M81.3193 169.504H197.732V233.136H81.3193V169.504Z" fill="black"/>
</mask>
<g mask="url(#mask2_3146_6461)">
<path d="M81.6523 228.572C83.1013 230.094 84.5503 231.614 86.0023 233.136H112.089C131.724 213.681 151.36 194.227 170.996 174.772C179.692 174.625 188.386 174.481 197.082 174.337C195.633 172.741 194.184 171.148 192.733 169.552L166.321 169.772C146.829 189.408 127.338 209.044 107.846 228.679C99.1163 228.645 90.3853 228.609 81.6523 228.572Z" fill="#6F4627"/>
</g>
<path d="M148.326 8.10821C146.796 6.57735 145.265 5.04649 143.734 3.51562H91.9023C93.3093 4.98435 94.7153 6.45025 96.1223 7.91897C113.523 7.98111 130.925 8.04607 148.326 8.10821Z" fill="#2C3126"/>
<path d="M158.133 17.9119L153.54 13.3193H101.708C103.115 14.788 104.522 16.2568 105.925 17.7255C123.33 17.7876 140.731 17.8498 158.133 17.9119Z" fill="#2C3126"/>
<path d="M168.332 28.1112L163.737 23.5186H111.908L116.125 27.9248C133.526 27.9869 150.928 28.0491 168.332 28.1112Z" fill="#2C3126"/>
<path d="M266.381 8.10821C264.85 6.57735 263.319 5.04649 261.785 3.51562H209.956C211.36 4.98435 212.767 6.45025 214.173 7.91897C231.575 7.98111 248.976 8.04607 266.381 8.10821Z" fill="#2C3126"/>
<path d="M276.184 17.9119L271.592 13.3193H219.76C221.167 14.788 222.573 16.2568 223.98 17.7255C241.381 17.7876 258.783 17.8498 276.184 17.9119Z" fill="#2C3126"/>
<path d="M286.383 28.1112L281.791 23.5186H229.959L234.176 27.9248C251.577 27.9869 268.982 28.0491 286.383 28.1112Z" fill="#2C3126"/>
<path d="M256.698 34.0172C255.249 35.5396 253.798 37.062 252.349 38.5844H226.262C206.626 19.1266 186.991 -0.328299 167.355 -19.7832C158.658 -19.9273 149.965 -20.0741 141.268 -20.2182C142.717 -21.8112 144.166 -23.407 145.615 -25C154.422 -24.9266 163.225 -24.856 172.026 -24.7825C191.521 -5.14683 211.013 14.4917 230.504 34.1274C239.235 34.0906 247.968 34.0539 256.698 34.0172Z" fill="#6F4627"/>
<path d="M246.892 43.8238C245.443 45.3462 243.994 46.8686 242.545 48.3882H216.455C196.822 28.9332 177.184 9.47836 157.548 -9.97656C148.855 -10.1235 140.158 -10.2675 131.464 -10.4116C132.913 -12.0074 134.362 -13.6004 135.811 -15.1934C144.615 -15.1228 153.419 -15.0493 162.223 -14.9759C181.714 4.65983 201.206 24.2955 220.698 43.934C229.431 43.8973 238.161 43.8605 246.892 43.8238Z" fill="#6F4627"/>
<path d="M237.085 53.2378C235.636 54.7602 234.187 56.2798 232.738 57.8022H206.652C187.016 38.3473 167.38 18.8923 147.742 -0.562616C139.048 -0.709486 130.354 -0.853536 121.658 -0.997576C123.107 -2.59341 124.556 -4.1864 126.005 -5.78223L152.416 -5.56474C171.908 14.0738 191.399 33.7095 210.891 53.3452C219.624 53.3113 228.355 53.2746 237.085 53.2378Z" fill="#6F4627"/>
<path d="M171.744 66.4362C173.275 64.9053 174.806 63.3744 176.34 61.8408H228.168L223.952 66.2469L171.744 66.4362Z" fill="#2C3126"/>
<path d="M161.94 76.2401C163.471 74.7092 165.002 73.1783 166.533 71.6475H218.362C216.958 73.1162 215.552 74.5849 214.145 76.0536C196.743 76.1158 179.342 76.1779 161.94 76.2401Z" fill="#2C3126"/>
<path d="M151.741 86.4393C153.272 84.9085 154.803 83.3776 156.334 81.8467H208.166L203.949 86.2529C186.544 86.315 169.143 86.3772 151.741 86.4393Z" fill="#2C3126"/>
<path d="M180.963 92.3453C182.412 93.8677 183.864 95.3901 185.313 96.9125H211.4C231.035 77.4548 250.671 57.9998 270.307 38.5449C279.003 38.4009 287.697 38.254 296.393 38.11C294.944 36.517 293.495 34.9211 292.047 33.3281L265.635 33.5456C246.143 53.1813 226.649 72.8198 207.157 92.4555C198.427 92.4188 189.694 92.3821 180.963 92.3453Z" fill="#6F4627"/>
<path d="M190.771 102.152C192.219 103.674 193.668 105.197 195.117 106.716H221.206C240.839 87.2614 260.478 67.8065 280.114 48.3516C288.808 48.2047 297.504 48.0607 306.201 47.9166C304.749 46.3208 303.3 44.7278 301.851 43.1348C293.047 43.2054 284.242 43.2789 275.439 43.3523C255.947 62.988 236.456 82.6237 216.965 102.262C208.234 102.225 199.501 102.189 190.771 102.152Z" fill="#6F4627"/>
<path d="M200.573 111.566C202.025 113.085 203.474 114.608 204.923 116.13H231.01C250.645 96.6753 270.281 77.2204 289.92 57.7627C298.613 57.6186 307.307 57.4746 316.003 57.3305C314.555 55.7347 313.106 54.1417 311.657 52.5459C302.853 52.6193 294.049 52.6928 285.245 52.7634L226.77 111.676C218.037 111.639 209.306 111.602 200.573 111.566Z" fill="#6F4627"/>
<path d="M148.326 125.115L143.734 120.522H91.9023C93.3093 121.991 94.7153 123.46 96.1223 124.928C113.523 124.99 130.925 125.053 148.326 125.115Z" fill="#2C3126"/>
<path d="M158.133 134.918L153.54 130.326H101.708C103.115 131.795 104.522 133.263 105.925 134.732C123.33 134.794 140.731 134.856 158.133 134.918Z" fill="#2C3126"/>
<path d="M168.332 145.118C166.801 143.587 165.27 142.056 163.737 140.525H111.908L116.125 144.931C133.526 144.993 150.928 145.055 168.332 145.118Z" fill="#2C3126"/>
<path d="M266.381 125.115L261.785 120.522H209.956L214.173 124.928C231.575 124.99 248.976 125.053 266.381 125.115Z" fill="#2C3126"/>
<path d="M276.184 134.918L271.592 130.326H219.76C221.167 131.795 222.573 133.263 223.98 134.732C241.381 134.794 258.783 134.856 276.184 134.918Z" fill="#2C3126"/>
<path d="M286.383 145.118C284.852 143.587 283.322 142.056 281.791 140.525H229.959L234.176 144.931C251.577 144.993 268.982 145.055 286.383 145.118Z" fill="#2C3126"/>
<path d="M256.698 151.026C255.249 152.546 253.798 154.068 252.349 155.591H226.262C206.626 136.136 186.991 116.681 167.355 97.2227C158.658 97.0787 149.965 96.9346 141.268 96.7878C142.717 95.1948 144.166 93.6018 145.615 92.0059C154.422 92.0794 163.225 92.1528 172.026 92.2234C191.521 111.86 211.013 131.498 230.504 151.134C239.235 151.097 247.968 151.06 256.698 151.026Z" fill="#6F4627"/>
<path d="M246.892 160.83C245.443 162.352 243.994 163.875 242.545 165.394H216.455C196.822 145.939 177.184 126.485 157.548 107.03C148.855 106.886 140.158 106.739 131.464 106.595C132.913 105.002 134.362 103.406 135.811 101.812C144.615 101.883 153.419 101.957 162.223 102.03L220.698 160.94C229.431 160.904 238.161 160.867 246.892 160.83Z" fill="#6F4627"/>
<path d="M237.085 170.244C235.636 171.766 234.187 173.289 232.738 174.808H206.652C187.016 155.353 167.38 135.899 147.742 116.444C139.048 116.297 130.354 116.153 121.658 116.009C123.107 114.413 124.556 112.82 126.005 111.227L152.416 111.441L210.891 170.351C219.624 170.317 228.355 170.281 237.085 170.244Z" fill="#6F4627"/>
<path d="M171.744 183.443C173.275 181.912 174.806 180.381 176.34 178.85H228.168C226.765 180.319 225.358 181.788 223.952 183.256L171.744 183.443Z" fill="#2C3126"/>
<path d="M161.94 193.246L166.533 188.654H218.362C216.958 190.123 215.552 191.591 214.145 193.06C196.743 193.122 179.342 193.184 161.94 193.246Z" fill="#2C3126"/>
<path d="M151.741 203.446C153.272 201.915 154.803 200.384 156.334 198.853H208.166C206.759 200.322 205.352 201.79 203.949 203.259C186.544 203.321 169.143 203.383 151.741 203.446Z" fill="#2C3126"/>
<path d="M180.963 209.352C182.412 210.874 183.864 212.396 185.313 213.919H211.4C231.035 194.461 250.671 175.006 270.307 155.551C279.003 155.407 287.697 155.263 296.393 155.116C294.944 153.523 293.495 151.927 292.047 150.334L265.635 150.552C246.143 170.188 226.649 189.826 207.157 209.462C198.427 209.425 189.694 209.391 180.963 209.352Z" fill="#6F4627"/>
<path d="M190.771 219.158C192.219 220.68 193.668 222.203 195.117 223.722H221.206C240.839 204.268 260.478 184.813 280.114 165.358C288.808 165.214 297.504 165.067 306.201 164.923C304.749 163.327 303.3 161.734 301.851 160.141C293.047 160.212 284.242 160.285 275.439 160.358C255.947 179.994 236.456 199.63 216.965 219.268C208.234 219.232 199.501 219.195 190.771 219.158Z" fill="#6F4627"/>
<mask id="mask3_3146_6461" style="mask-type:alpha" maskUnits="userSpaceOnUse" x="199" y="169" width="118" height="65">
<path d="M199.901 169.504H316.314V233.136H199.901V169.504Z" fill="black"/>
</mask>
<g mask="url(#mask3_3146_6461)">
<path d="M200.573 228.572C202.025 230.094 203.474 231.614 204.923 233.136H231.01C250.645 213.681 270.281 194.227 289.92 174.772C298.613 174.625 307.307 174.481 316.003 174.337C314.555 172.741 313.106 171.148 311.657 169.552L285.245 169.772C265.753 189.408 246.262 209.044 226.77 228.679C218.037 228.645 209.306 228.609 200.573 228.572Z" fill="#6F4627"/>
</g>
</g>
</g>
</svg>
