<svg width="361" height="366" viewBox="0 0 361 366" fill="none" xmlns="http://www.w3.org/2000/svg">
<g opacity="0.1">
<mask id="mask0_3145_542" style="mask-type:alpha" maskUnits="userSpaceOnUse" x="0" y="0" width="361" height="366">
<rect width="361" height="366" fill="#D9D9D9"/>
</mask>
<g mask="url(#mask0_3145_542)">
<path d="M-16.6301 60.7698L-59.8701 43.4198L-42.9702 -0.450195L0.269836 15.2798L-16.6301 60.7698Z" fill="#E5E4E2"/>
<path d="M17.17 60.7698L60.4 43.4198L43.5101 -0.450195L0.27002 15.2798L17.17 60.7698Z" fill="#7F552C"/>
<path d="M0.269775 15.2798L43.5098 -0.450256L0.269775 -17.7803L-42.9702 -0.450256L0.269775 15.2798Z" fill="#383C2E"/>
<path d="M103.64 60.7698L60.3999 43.4198L77.2999 -0.450195L120.54 15.2798L103.64 60.7698Z" fill="#E5E4E2"/>
<path d="M137.44 60.7698L180.67 43.4198L163.78 -0.450195L120.54 15.2798L137.44 60.7698Z" fill="#7F552C"/>
<path d="M120.54 15.2798L163.78 -0.450256L120.54 -17.7803L77.2998 -0.450256L120.54 15.2798Z" fill="#383C2E"/>
<path d="M-42.9702 244.44L0.269836 227.08L-16.6301 183.22L-59.8701 198.95L-42.9702 244.44Z" fill="#7F552C"/>
<path d="M43.5101 244.44L0.27002 227.08L17.17 183.22L60.4 198.95L43.5101 244.44Z" fill="#E5E4E2"/>
<path d="M77.2999 244.44L120.54 227.08L103.64 183.22L60.3999 198.95L77.2999 244.44Z" fill="#7F552C"/>
<path d="M60.3999 198.95L103.64 183.22L60.3999 165.89L17.1699 183.22L60.3999 198.95Z" fill="#383C2E"/>
<path d="M163.78 244.44L120.54 227.08L137.44 183.22L180.67 198.95L163.78 244.44Z" fill="#E5E4E2"/>
<path d="M196.85 243.13L240.81 227.08L223.91 183.22L180.67 198.95L196.85 243.13Z" fill="#7F552C"/>
<path d="M180.67 198.95L223.91 183.22L180.67 165.89L137.44 183.22L180.67 198.95Z" fill="#383C2E"/>
<path d="M-42.9702 122L0.269836 104.64L-16.6301 60.7695L-59.8701 76.4995L-42.9702 122Z" fill="#7F552C"/>
<path d="M-16.6301 183.22L-59.8701 165.86L-42.9702 122L0.269836 137.73L-16.6301 183.22Z" fill="#E5E4E2"/>
<path d="M17.17 183.22L60.4 165.86L43.5101 122L0.27002 137.73L17.17 183.22Z" fill="#7F552C"/>
<path d="M0.269775 137.73L43.5098 122L0.269775 104.66L-42.9702 122L0.269775 137.73Z" fill="#383C2E"/>
<path d="M103.64 183.22L60.3999 165.86L77.2999 122L120.54 137.73L103.64 183.22Z" fill="#E5E4E2"/>
<path d="M137.44 183.22L180.67 165.86L163.78 122L120.54 137.73L137.44 183.22Z" fill="#7F552C"/>
<path d="M120.54 137.73L163.78 122L120.54 104.66L77.2998 122L120.54 137.73Z" fill="#383C2E"/>
<path d="M43.5101 122L0.27002 104.64L17.17 60.7695L60.4 76.4995L43.5101 122Z" fill="#E5E4E2"/>
<path d="M77.2999 122L120.54 104.64L103.64 60.7695L60.3999 76.4995L77.2999 122Z" fill="#7F552C"/>
<path d="M60.3999 76.5005L103.64 60.7704L60.3999 43.4404L17.1699 60.7704L60.3999 76.5005Z" fill="#383C2E"/>
<path d="M163.78 122L120.54 104.64L137.44 60.7695L180.67 76.4995L163.78 122Z" fill="#E5E4E2"/>
<path d="M196.85 120.68L240.81 104.64L223.91 60.7695L180.67 76.4995L196.85 120.68Z" fill="#7F552C"/>
<path d="M180.67 76.5005L223.91 60.7704L180.67 43.4404L137.44 60.7704L180.67 76.5005Z" fill="#383C2E"/>
<path d="M-16.6301 60.7698L-59.8701 43.4198L-42.9702 -0.450195L0.269836 15.2798L-16.6301 60.7698Z" fill="#E5E4E2"/>
<path d="M17.17 60.7698L60.4 43.4198L43.5101 -0.450195L0.27002 15.2798L17.17 60.7698Z" fill="#7F552C"/>
<path d="M0.269775 15.2798L43.5098 -0.450256L0.269775 -17.7803L-42.9702 -0.450256L0.269775 15.2798Z" fill="#383C2E"/>
<path d="M103.64 60.7698L60.3999 43.4198L77.2999 -0.450195L120.54 15.2798L103.64 60.7698Z" fill="#E5E4E2"/>
<path d="M137.44 60.7698L180.67 43.4198L163.78 -0.450195L120.54 15.2798L137.44 60.7698Z" fill="#7F552C"/>
<path d="M120.54 15.2798L163.78 -0.450256L120.54 -17.7803L77.2998 -0.450256L120.54 15.2798Z" fill="#383C2E"/>
<path d="M-42.9702 244.44L0.269836 227.08L-16.6301 183.22L-59.8701 198.95L-42.9702 244.44Z" fill="#7F552C"/>
<path d="M43.5101 244.44L0.27002 227.08L17.17 183.22L60.4 198.95L43.5101 244.44Z" fill="#E5E4E2"/>
<path d="M77.2999 244.44L120.54 227.08L103.64 183.22L60.3999 198.95L77.2999 244.44Z" fill="#7F552C"/>
<path d="M60.3999 198.95L103.64 183.22L60.3999 165.89L17.1699 183.22L60.3999 198.95Z" fill="#383C2E"/>
<path d="M163.78 244.44L120.54 227.08L137.44 183.22L180.67 198.95L163.78 244.44Z" fill="#E5E4E2"/>
<path d="M196.85 243.13L240.81 227.08L223.91 183.22L180.67 198.95L196.85 243.13Z" fill="#7F552C"/>
<path d="M180.67 198.95L223.91 183.22L180.67 165.89L137.44 183.22L180.67 198.95Z" fill="#383C2E"/>
<path d="M-42.9702 122L0.269836 104.64L-16.6301 60.7695L-59.8701 76.4995L-42.9702 122Z" fill="#7F552C"/>
<path d="M-16.6301 183.22L-59.8701 165.86L-42.9702 122L0.269836 137.73L-16.6301 183.22Z" fill="#E5E4E2"/>
<path d="M17.17 183.22L60.4 165.86L43.5101 122L0.27002 137.73L17.17 183.22Z" fill="#7F552C"/>
<path d="M0.269775 137.73L43.5098 122L0.269775 104.66L-42.9702 122L0.269775 137.73Z" fill="#383C2E"/>
<path d="M103.64 183.22L60.3999 165.86L77.2999 122L120.54 137.73L103.64 183.22Z" fill="#E5E4E2"/>
<path d="M137.44 183.22L180.67 165.86L163.78 122L120.54 137.73L137.44 183.22Z" fill="#7F552C"/>
<path d="M120.54 137.73L163.78 122L120.54 104.66L77.2998 122L120.54 137.73Z" fill="#383C2E"/>
<path d="M43.5101 122L0.27002 104.64L17.17 60.7695L60.4 76.4995L43.5101 122Z" fill="#E5E4E2"/>
<path d="M77.2999 122L120.54 104.64L103.64 60.7695L60.3999 76.4995L77.2999 122Z" fill="#7F552C"/>
<path d="M60.3999 76.5005L103.64 60.7704L60.3999 43.4404L17.1699 60.7704L60.3999 76.5005Z" fill="#383C2E"/>
<path d="M163.78 122L120.54 104.64L137.44 60.7695L180.67 76.4995L163.78 122Z" fill="#E5E4E2"/>
<path d="M196.85 120.68L240.81 104.64L223.91 60.7695L180.67 76.4995L196.85 120.68Z" fill="#7F552C"/>
<path d="M180.67 76.5005L223.91 60.7704L180.67 43.4404L137.44 60.7704L180.67 76.5005Z" fill="#383C2E"/>
<path d="M224.37 60.7698L181.13 43.4198L198.03 -0.450195L241.27 15.2798L224.37 60.7698Z" fill="#E5E4E2"/>
<path d="M258.17 60.7698L301.4 43.4198L284.51 -0.450195L241.27 15.2798L258.17 60.7698Z" fill="#7F552C"/>
<path d="M241.27 15.2798L284.51 -0.450256L241.27 -17.7803L198.03 -0.450256L241.27 15.2798Z" fill="#383C2E"/>
<path d="M344.64 60.7698L301.4 43.4198L318.3 -0.450195L361.54 15.2798L344.64 60.7698Z" fill="#E5E4E2"/>
<path d="M361.54 15.2798L404.78 -0.450256L361.54 -17.7803L318.3 -0.450256L361.54 15.2798Z" fill="#383C2E"/>
<path d="M164.96 243.13L121 227.08L137.9 183.22L181.13 198.95L164.96 243.13Z" fill="#E5E4E2"/>
<path d="M198.03 244.44L241.27 227.08L224.37 183.22L181.13 198.95L198.03 244.44Z" fill="#7F552C"/>
<path d="M181.13 198.95L224.37 183.22L181.13 165.89L137.9 183.22L181.13 198.95Z" fill="#383C2E"/>
<path d="M284.51 244.44L241.27 227.08L258.17 183.22L301.4 198.95L284.51 244.44Z" fill="#E5E4E2"/>
<path d="M318.3 244.44L361.54 227.08L344.64 183.22L301.4 198.95L318.3 244.44Z" fill="#7F552C"/>
<path d="M301.4 198.95L344.64 183.22L301.4 165.89L258.17 183.22L301.4 198.95Z" fill="#383C2E"/>
<path d="M164.96 120.68L121 104.64L137.9 60.7695L181.13 76.4995L164.96 120.68Z" fill="#E5E4E2"/>
<path d="M198.03 122L241.27 104.64L224.37 60.7695L181.13 76.4995L198.03 122Z" fill="#7F552C"/>
<path d="M181.13 76.5005L224.37 60.7704L181.13 43.4404L137.9 60.7704L181.13 76.5005Z" fill="#383C2E"/>
<path d="M224.37 183.22L181.13 165.86L198.03 122L241.27 137.73L224.37 183.22Z" fill="#E5E4E2"/>
<path d="M258.17 183.22L301.4 165.86L284.51 122L241.27 137.73L258.17 183.22Z" fill="#7F552C"/>
<path d="M241.27 137.73L284.51 122L241.27 104.66L198.03 122L241.27 137.73Z" fill="#383C2E"/>
<path d="M344.64 183.22L301.4 165.86L318.3 122L361.54 137.73L344.64 183.22Z" fill="#E5E4E2"/>
<path d="M361.54 137.73L404.78 122L361.54 104.66L318.3 122L361.54 137.73Z" fill="#383C2E"/>
<path d="M284.51 122L241.27 104.64L258.17 60.7695L301.4 76.4995L284.51 122Z" fill="#E5E4E2"/>
<path d="M318.3 122L361.54 104.64L344.64 60.7695L301.4 76.4995L318.3 122Z" fill="#7F552C"/>
<path d="M301.4 76.5005L344.64 60.7704L301.4 43.4404L258.17 60.7704L301.4 76.5005Z" fill="#383C2E"/>
<path d="M164.96 243.24L121 227.2L137.9 183.33L181.13 199.06L164.96 243.24Z" fill="#E5E4E2"/>
<path d="M198.03 244.55L241.27 227.2L224.37 183.33L181.13 199.06L198.03 244.55Z" fill="#7F552C"/>
<path d="M181.13 199.06L224.37 183.33L181.13 166L137.9 183.33L181.13 199.06Z" fill="#383C2E"/>
<path d="M224.37 305.77L181.13 288.42L198.03 244.55L241.27 260.28L224.37 305.77Z" fill="#E5E4E2"/>
<path d="M258.17 305.77L301.4 288.42L284.51 244.55L241.27 260.28L258.17 305.77Z" fill="#7F552C"/>
<path d="M241.27 260.28L284.51 244.55L241.27 227.22L198.03 244.55L241.27 260.28Z" fill="#383C2E"/>
<path d="M344.64 305.77L301.4 288.42L318.3 244.55L361.54 260.28L344.64 305.77Z" fill="#E5E4E2"/>
<path d="M361.54 260.28L404.78 244.55L361.54 227.22L318.3 244.55L361.54 260.28Z" fill="#383C2E"/>
<path d="M284.51 244.55L241.27 227.2L258.17 183.33L301.4 199.06L284.51 244.55Z" fill="#E5E4E2"/>
<path d="M318.3 244.55L361.54 227.2L344.64 183.33L301.4 199.06L318.3 244.55Z" fill="#7F552C"/>
<path d="M301.4 199.06L344.64 183.33L301.4 166L258.17 183.33L301.4 199.06Z" fill="#383C2E"/>
<path d="M164.96 365.68L121 349.64L137.9 305.77L181.13 321.5L164.96 365.68Z" fill="#E5E4E2"/>
<path d="M198.03 367L241.27 349.64L224.37 305.77L181.13 321.5L198.03 367Z" fill="#7F552C"/>
<path d="M181.13 321.5L224.37 305.77L181.13 288.44L137.9 305.77L181.13 321.5Z" fill="#383C2E"/>
<path d="M241.27 382.73L284.51 367L241.27 349.66L198.03 367L241.27 382.73Z" fill="#383C2E"/>
<path d="M361.54 382.73L404.78 367L361.54 349.66L318.3 367L361.54 382.73Z" fill="#383C2E"/>
<path d="M284.51 367L241.27 349.64L258.17 305.77L301.4 321.5L284.51 367Z" fill="#E5E4E2"/>
<path d="M318.3 367L361.54 349.64L344.64 305.77L301.4 321.5L318.3 367Z" fill="#7F552C"/>
<path d="M301.4 321.5L344.64 305.77L301.4 288.44L258.17 305.77L301.4 321.5Z" fill="#383C2E"/>
<path d="M-42.9702 243.55L0.269836 226.2L-16.6301 182.33L-59.8701 198.06L-42.9702 243.55Z" fill="#7F552C"/>
<path d="M-16.6301 304.77L-59.8701 287.42L-42.9702 243.55L0.269836 259.28L-16.6301 304.77Z" fill="#E5E4E2"/>
<path d="M17.17 304.77L60.4 287.42L43.5101 243.55L0.27002 259.28L17.17 304.77Z" fill="#7F552C"/>
<path d="M0.269775 259.28L43.5098 243.55L0.269775 226.22L-42.9702 243.55L0.269775 259.28Z" fill="#383C2E"/>
<path d="M103.64 304.77L60.3999 287.42L77.2999 243.55L120.54 259.28L103.64 304.77Z" fill="#E5E4E2"/>
<path d="M137.44 304.77L180.67 287.42L163.78 243.55L120.54 259.28L137.44 304.77Z" fill="#7F552C"/>
<path d="M120.54 259.28L163.78 243.55L120.54 226.22L77.2998 243.55L120.54 259.28Z" fill="#383C2E"/>
<path d="M43.5101 243.55L0.27002 226.2L17.17 182.33L60.4 198.06L43.5101 243.55Z" fill="#E5E4E2"/>
<path d="M77.2999 243.55L120.54 226.2L103.64 182.33L60.3999 198.06L77.2999 243.55Z" fill="#7F552C"/>
<path d="M60.3999 198.06L103.64 182.33L60.3999 165L17.1699 182.33L60.3999 198.06Z" fill="#383C2E"/>
<path d="M163.78 243.55L120.54 226.2L137.44 182.33L180.67 198.06L163.78 243.55Z" fill="#E5E4E2"/>
<path d="M196.85 242.24L240.81 226.2L223.91 182.33L180.67 198.06L196.85 242.24Z" fill="#7F552C"/>
<path d="M180.67 198.06L223.91 182.33L180.67 165L137.44 182.33L180.67 198.06Z" fill="#383C2E"/>
<path d="M-42.9702 366L0.269836 348.64L-16.6301 304.77L-59.8701 320.5L-42.9702 366Z" fill="#7F552C"/>
<path d="M0.269775 381.73L43.5098 366L0.269775 348.66L-42.9702 366L0.269775 381.73Z" fill="#383C2E"/>
<path d="M120.54 381.73L163.78 366L120.54 348.66L77.2998 366L120.54 381.73Z" fill="#383C2E"/>
<path d="M43.5101 366L0.27002 348.64L17.17 304.77L60.4 320.5L43.5101 366Z" fill="#E5E4E2"/>
<path d="M77.2999 366L120.54 348.64L103.64 304.77L60.3999 320.5L77.2999 366Z" fill="#7F552C"/>
<path d="M60.3999 320.5L103.64 304.77L60.3999 287.44L17.1699 304.77L60.3999 320.5Z" fill="#383C2E"/>
<path d="M163.78 366L120.54 348.64L137.44 304.77L180.67 320.5L163.78 366Z" fill="#E5E4E2"/>
<path d="M196.85 364.68L240.81 348.64L223.91 304.77L180.67 320.5L196.85 364.68Z" fill="#7F552C"/>
<path d="M180.67 320.5L223.91 304.77L180.67 287.44L137.44 304.77L180.67 320.5Z" fill="#383C2E"/>
</g>
</g>
</svg>
