<svg width="150" height="150" viewBox="0 0 150 150" fill="none" xmlns="http://www.w3.org/2000/svg">
<path d="M67.2125 91.097H66.1431V88.5259H67.2125C68.3117 88.5259 68.9296 88.9676 68.9296 89.8112C68.9296 90.6554 68.3117 91.097 67.2125 91.097ZM66.1431 85.6217H67.085C67.8798 85.6217 68.4587 85.9749 68.4587 86.7106C68.4587 87.4365 67.8798 87.8293 67.085 87.8293H66.1431V85.6217ZM68.3605 88.1136C68.8515 87.8195 69.1651 87.3291 69.1651 86.7106C69.1651 85.5924 68.2818 84.9251 67.085 84.9251H65.4465V91.7936H67.2125C68.4099 91.7936 69.636 91.3227 69.636 89.8112C69.636 88.9383 69.0864 88.3887 68.3605 88.1136Z" fill="#383C2E"/>
<path d="M74.7499 88.948L75.9668 85.8572L77.1837 88.948H74.7499ZM75.574 84.9246L72.876 91.7936H73.6317L74.4754 89.655H77.4582L78.3019 91.7936H79.0479L76.3493 84.9246H75.574Z" fill="#383C2E"/>
<path d="M84.2307 88.2221H83.4359V85.6217H84.2307C85.3299 85.6217 85.8789 86.1225 85.8789 86.9271C85.8789 87.7213 85.3299 88.2221 84.2307 88.2221ZM86.5951 86.9271C86.5951 85.6217 85.6239 84.9251 84.2307 84.9251H82.7295V91.7936H83.4359V88.9187H84.2307C84.3088 88.9187 84.3777 88.9187 84.4564 88.9084L86.4187 91.7936H87.302L85.2018 88.7912C86.0558 88.5259 86.5951 87.8884 86.5951 86.9271Z" fill="#383C2E"/>
<path d="M78.1765 45.2089H80.5127V42.8727H78.1765V45.2089Z" fill="#383C2E"/>
<path d="M78.1765 56.3845H80.5127V54.0484H78.1765V56.3845Z" fill="#383C2E"/>
<path d="M78.9519 48.1836H76.6157V50.5197H78.9519V48.1836Z" fill="#383C2E"/>
<path d="M75.0809 56.3845V42.8727H72.2358C72.3335 45.0353 72.3883 47.2906 72.3883 49.6322C72.3883 51.971 72.3335 54.2236 72.2358 56.3845H75.0809Z" fill="#383C2E"/>
<path d="M22.9313 101.03C24.4163 101.03 25.975 101.065 27.6064 101.134V98.9491C25.9468 99.0256 24.3886 99.0641 22.9313 99.0641C22.9313 97.7458 22.8966 96.6026 22.8266 95.6337C24.528 95.6337 26.4247 95.6896 28.5162 95.8008L28.6312 93.5102H20.1389C20.2295 95.3027 20.2751 97.4674 20.2751 100.005C20.2751 102.648 20.2295 105.022 20.1389 107.127H29.0392L29.1227 104.826C26.9613 104.945 24.9257 105.004 23.0149 105.004C22.959 103.77 22.9313 102.446 22.9313 101.03Z" fill="#383C2E"/>
<path d="M35.6951 87.774C35.6951 85.0271 35.7369 82.8624 35.821 81.2798H32.8821C32.9651 82.9877 33.0074 85.153 33.0074 87.774C33.0074 90.6331 32.9651 93.0073 32.8821 94.8964H41.5724L41.656 92.6166C39.5157 92.7208 37.4833 92.7729 35.5589 92.7729C35.6495 91.5392 35.6951 89.8725 35.6951 87.774Z" fill="#383C2E"/>
<path d="M44.2292 76.5679C45.7141 76.5679 47.2728 76.6032 48.9042 76.6726V74.4873C47.2446 74.5638 45.6864 74.6023 44.2292 74.6023C44.2292 73.2845 44.1945 72.1408 44.125 71.1719C45.8259 71.1719 47.7226 71.2278 49.814 71.339L49.9291 69.0489H41.4368C41.5274 70.8409 41.5729 73.0056 41.5729 75.5436C41.5729 78.1858 41.5274 80.5599 41.4368 82.6655H50.3371L50.4206 80.3646C48.2591 80.4829 46.2236 80.542 44.3127 80.542C44.2574 79.3083 44.2292 77.9839 44.2292 76.5679Z" fill="#383C2E"/>
<path d="M67.9644 62.7745C67.6399 59.069 67.4782 56.4947 67.4782 55.0515H63.4619C63.4619 55.8252 62.9757 57.5439 62.003 60.2073C61.0302 62.8706 60.5441 64.5785 60.5441 65.3315H60.3873C60.3873 64.5855 59.9603 62.8809 59.1058 60.2176C58.2519 57.5543 57.8249 55.8323 57.8249 55.0515H53.7776C53.7776 55.9576 53.5248 58.4017 53.0192 62.3828C52.5141 66.3634 52.2612 68.4587 52.2612 68.6681H55.0222C55.0222 67.7615 55.1041 65.8757 55.2674 63.01C55.4318 60.1443 55.517 58.2758 55.524 57.4045H55.6808C55.8273 58.2758 56.0226 59.1547 56.2668 60.0396C56.5104 60.9256 57.0285 62.4729 57.8195 64.6832C58.6111 66.8934 59.0066 68.2221 59.0066 68.6681H61.3178C61.3178 68.2357 61.7312 66.9195 62.5575 64.7201C63.3832 62.5201 63.9463 60.8556 64.2464 59.726C64.5458 58.5965 64.7308 57.8228 64.8008 57.4045H64.9576C64.9641 58.1017 65.0412 59.8568 65.1877 62.6698C65.3341 65.4834 65.4068 67.4826 65.4068 68.6681H68.4505C68.4505 68.4446 68.2888 66.4806 67.9644 62.7745Z" fill="#383C2E"/>
<path d="M93.4201 55.051C93.5177 57.0383 93.5665 58.9768 93.5665 60.8659C93.5665 62.1001 93.6501 63.4945 93.8177 65.0494H93.6609C93.3886 64.0728 92.3355 62.2152 90.5023 59.4748C88.7803 56.8956 87.9193 55.421 87.9193 55.051H84.8127C84.9175 56.8365 84.9701 59.0012 84.9701 61.5457C84.9701 64.1325 84.9175 66.5066 84.8127 68.6681H87.386C87.2878 66.193 87.2395 64.094 87.2395 62.372C87.2395 61.1377 87.1522 59.7575 86.978 58.2302H87.1451C87.424 59.2904 88.5676 61.2598 90.5755 64.1395C92.4923 66.8728 93.4515 68.3822 93.4515 68.6681H96.0345C95.9369 66.5413 95.8886 64.1672 95.8886 61.5457C95.8886 58.9453 95.9369 56.7806 96.0345 55.051H93.4201Z" fill="#383C2E"/>
<path d="M104.291 82.6655C104.215 80.4275 104.177 78.0534 104.177 75.5436C104.177 73.9258 104.183 72.4582 104.198 71.1404C105.431 71.1404 106.746 71.1925 108.14 71.2972L108.213 69.0489H97.494L97.4099 71.308C99.1254 71.1963 100.474 71.1404 101.458 71.1404C101.485 72.4859 101.5 73.954 101.5 75.5436C101.5 78.074 101.454 80.4481 101.363 82.6655H104.291Z" fill="#383C2E"/>
<path d="M108.108 88.9876C109.342 85.3689 109.959 83.4234 109.959 83.1516H110.126C110.126 83.4445 110.723 85.3895 111.915 88.9876H108.108ZM112.323 81.2798H108.37C108.37 81.7046 107.555 84.0131 105.928 88.2031C104.3 92.3931 103.486 94.6246 103.486 94.8964H106.634C106.634 94.4016 106.961 93.0973 107.617 90.9852H112.448C113.083 93.1326 113.4 94.4363 113.4 94.8964H116.746C116.746 94.5198 116.009 92.2559 114.535 88.1038C113.06 83.9518 112.323 81.677 112.323 81.2798Z" fill="#383C2E"/>
<path d="M123.764 105.004C123.855 103.77 123.9 102.104 123.9 100.005C123.9 97.258 123.942 95.0933 124.026 93.5102H121.087C121.17 95.2192 121.213 97.3839 121.213 100.005C121.213 102.864 121.17 105.238 121.087 107.127H129.778L129.861 104.847C127.721 104.952 125.688 105.004 123.764 105.004Z" fill="#383C2E"/>
</svg>
